<svg xmlns="http://www.w3.org/2000/svg" viewBox="-1164.0 -759.0 2328.0 1518.0" font-family="Segoe UI, system-ui, sans-serif">
<path d="M 475.0 -624.0 L 554.0 -702.0" fill="none" stroke="#1e1e1e" stroke-width="1.4"/>
<polygon points="554.0,-702.0 550.7,-693.6 545.6,-698.8" fill="#1e1e1e"/>
<path d="M 475.0 -624.0 L 554.0 -624.0" fill="none" stroke="#1e1e1e" stroke-width="1.4"/>
<polygon points="554.0,-624.0 545.8,-620.3 545.8,-627.7" fill="#1e1e1e"/>
<path d="M 475.0 -624.0 L 554.0 -546.0" fill="none" stroke="#1e1e1e" stroke-width="1.4"/>
<polygon points="554.0,-546.0 545.6,-549.2 550.7,-554.4" fill="#1e1e1e"/>
<path d="M 806.0 -390.0 L 900.0 -468.0" fill="none" stroke="#1e1e1e" stroke-width="1.4"/>
<polygon points="900.0,-468.0 896.0,-459.9 891.3,-465.6" fill="#1e1e1e"/>
<path d="M 806.0 -390.0 L 900.0 -390.0" fill="none" stroke="#1e1e1e" stroke-width="1.4"/>
<polygon points="900.0,-390.0 891.8,-386.3 891.8,-393.7" fill="#1e1e1e"/>
<path d="M 806.0 -390.0 L 900.0 -312.0" fill="none" stroke="#1e1e1e" stroke-width="1.4"/>
<polygon points="900.0,-312.0 891.3,-314.4 896.0,-320.1" fill="#1e1e1e"/>
<path d="M 806.0 -117.0 L 900.0 -234.0" fill="none" stroke="#1e1e1e" stroke-width="1.4"/>
<polygon points="900.0,-234.0 897.7,-225.3 892.0,-229.9" fill="#1e1e1e"/>
<path d="M 806.0 -117.0 L 900.0 -156.0" fill="none" stroke="#1e1e1e" stroke-width="1.4"/>
<polygon points="900.0,-156.0 893.8,-149.5 891.0,-156.2" fill="#1e1e1e"/>
<path d="M 806.0 -117.0 L 900.0 -78.0" fill="none" stroke="#1e1e1e" stroke-width="1.4"/>
<polygon points="900.0,-78.0 891.0,-77.8 893.8,-84.5" fill="#1e1e1e"/>
<path d="M 806.0 -117.0 L 900.0 0.0" fill="none" stroke="#1e1e1e" stroke-width="1.4"/>
<polygon points="900.0,0.0 892.0,-4.1 897.7,-8.7" fill="#1e1e1e"/>
<path d="M 806.0 195.0 L 900.0 78.0" fill="none" stroke="#1e1e1e" stroke-width="1.4"/>
<polygon points="900.0,78.0 897.7,86.7 892.0,82.1" fill="#1e1e1e"/>
<path d="M 806.0 195.0 L 900.0 156.0" fill="none" stroke="#1e1e1e" stroke-width="1.4"/>
<polygon points="900.0,156.0 893.8,162.5 891.0,155.8" fill="#1e1e1e"/>
<path d="M 806.0 195.0 L 900.0 234.0" fill="none" stroke="#1e1e1e" stroke-width="1.4"/>
<polygon points="900.0,234.0 891.0,234.2 893.8,227.5" fill="#1e1e1e"/>
<path d="M 806.0 195.0 L 900.0 312.0" fill="none" stroke="#1e1e1e" stroke-width="1.4"/>
<polygon points="900.0,312.0 892.0,307.9 897.7,303.3" fill="#1e1e1e"/>
<path d="M 475.0 0.0 L 554.0 -390.0" fill="none" stroke="#1e1e1e" stroke-width="1.4"/>
<polygon points="554.0,-390.0 556.0,-381.2 548.8,-382.7" fill="#1e1e1e"/>
<path d="M 475.0 0.0 L 554.0 -117.0" fill="none" stroke="#1e1e1e" stroke-width="1.4"/>
<polygon points="554.0,-117.0 552.4,-108.1 546.4,-112.2" fill="#1e1e1e"/>
<path d="M 475.0 0.0 L 554.0 195.0" fill="none" stroke="#1e1e1e" stroke-width="1.4"/>
<polygon points="554.0,195.0 547.5,188.8 554.3,186.0" fill="#1e1e1e"/>
<path d="M 475.0 0.0 L 554.0 390.0" fill="none" stroke="#1e1e1e" stroke-width="1.4"/>
<polygon points="554.0,390.0 548.8,382.7 556.0,381.2" fill="#1e1e1e"/>
<path d="M -806.0 -468.0 L -900.0 -546.0" fill="none" stroke="#1e1e1e" stroke-width="1.4"/>
<polygon points="-900.0,-546.0 -891.3,-543.6 -896.0,-537.9" fill="#1e1e1e"/>
<path d="M -806.0 -468.0 L -900.0 -468.0" fill="none" stroke="#1e1e1e" stroke-width="1.4"/>
<polygon points="-900.0,-468.0 -891.8,-471.7 -891.8,-464.3" fill="#1e1e1e"/>
<path d="M -806.0 -468.0 L -900.0 -390.0" fill="none" stroke="#1e1e1e" stroke-width="1.4"/>
<polygon points="-900.0,-390.0 -896.0,-398.1 -891.3,-392.4" fill="#1e1e1e"/>
<path d="M -806.0 -156.0 L -900.0 -312.0" fill="none" stroke="#1e1e1e" stroke-width="1.4"/>
<polygon points="-900.0,-312.0 -892.6,-306.9 -898.9,-303.1" fill="#1e1e1e"/>
<path d="M -806.0 -156.0 L -900.0 -234.0" fill="none" stroke="#1e1e1e" stroke-width="1.4"/>
<polygon points="-900.0,-234.0 -891.3,-231.6 -896.0,-225.9" fill="#1e1e1e"/>
<path d="M -806.0 -156.0 L -900.0 -156.0" fill="none" stroke="#1e1e1e" stroke-width="1.4"/>
<polygon points="-900.0,-156.0 -891.8,-159.7 -891.8,-152.3" fill="#1e1e1e"/>
<path d="M -806.0 -156.0 L -900.0 -78.0" fill="none" stroke="#1e1e1e" stroke-width="1.4"/>
<polygon points="-900.0,-78.0 -896.0,-86.1 -891.3,-80.4" fill="#1e1e1e"/>
<path d="M -806.0 -156.0 L -900.0 0.0" fill="none" stroke="#1e1e1e" stroke-width="1.4"/>
<polygon points="-900.0,0.0 -898.9,-8.9 -892.6,-5.1" fill="#1e1e1e"/>
<path d="M -475.0 -312.0 L -554.0 -468.0" fill="none" stroke="#1e1e1e" stroke-width="1.4"/>
<polygon points="-554.0,-468.0 -547.0,-462.3 -553.6,-459.0" fill="#1e1e1e"/>
<path d="M -475.0 -312.0 L -554.0 -156.0" fill="none" stroke="#1e1e1e" stroke-width="1.4"/>
<polygon points="-554.0,-156.0 -553.6,-165.0 -547.0,-161.7" fill="#1e1e1e"/>
<path d="M -806.0 156.0 L -900.0 78.0" fill="none" stroke="#1e1e1e" stroke-width="1.4"/>
<polygon points="-900.0,78.0 -891.3,80.4 -896.0,86.1" fill="#1e1e1e"/>
<path d="M -806.0 156.0 L -900.0 156.0" fill="none" stroke="#1e1e1e" stroke-width="1.4"/>
<polygon points="-900.0,156.0 -891.8,152.3 -891.8,159.7" fill="#1e1e1e"/>
<path d="M -806.0 156.0 L -900.0 234.0" fill="none" stroke="#1e1e1e" stroke-width="1.4"/>
<polygon points="-900.0,234.0 -896.0,225.9 -891.3,231.6" fill="#1e1e1e"/>
<path d="M -806.0 429.0 L -900.0 312.0" fill="none" stroke="#1e1e1e" stroke-width="1.4"/>
<polygon points="-900.0,312.0 -892.0,316.1 -897.7,320.7" fill="#1e1e1e"/>
<path d="M -806.0 429.0 L -900.0 390.0" fill="none" stroke="#1e1e1e" stroke-width="1.4"/>
<polygon points="-900.0,390.0 -891.0,389.8 -893.8,396.5" fill="#1e1e1e"/>
<path d="M -806.0 429.0 L -900.0 468.0" fill="none" stroke="#1e1e1e" stroke-width="1.4"/>
<polygon points="-900.0,468.0 -893.8,461.5 -891.0,468.2" fill="#1e1e1e"/>
<path d="M -806.0 429.0 L -900.0 546.0" fill="none" stroke="#1e1e1e" stroke-width="1.4"/>
<polygon points="-900.0,546.0 -897.7,537.3 -892.0,541.9" fill="#1e1e1e"/>
<path d="M -475.0 293.0 L -554.0 156.0" fill="none" stroke="#1e1e1e" stroke-width="1.4"/>
<polygon points="-554.0,156.0 -546.7,161.3 -553.1,165.0" fill="#1e1e1e"/>
<path d="M -475.0 293.0 L -554.0 429.0" fill="none" stroke="#1e1e1e" stroke-width="1.4"/>
<polygon points="-554.0,429.0 -553.0,420.1 -546.7,423.7" fill="#1e1e1e"/>
<path d="M 475.0 585.0 L 554.0 468.0" fill="none" stroke="#1e1e1e" stroke-width="1.4"/>
<polygon points="554.0,468.0 552.4,476.9 546.4,472.8" fill="#1e1e1e"/>
<path d="M 475.0 585.0 L 554.0 546.0" fill="none" stroke="#1e1e1e" stroke-width="1.4"/>
<polygon points="554.0,546.0 548.3,552.9 545.0,546.3" fill="#1e1e1e"/>
<path d="M 475.0 585.0 L 554.0 624.0" fill="none" stroke="#1e1e1e" stroke-width="1.4"/>
<polygon points="554.0,624.0 545.0,623.7 548.3,617.1" fill="#1e1e1e"/>
<path d="M 475.0 585.0 L 554.0 702.0" fill="none" stroke="#1e1e1e" stroke-width="1.4"/>
<polygon points="554.0,702.0 546.4,697.2 552.4,693.1" fill="#1e1e1e"/>
<path d="M 165.0 0.0 L 205.0 -624.0" fill="none" stroke="#1e1e1e" stroke-width="1.4"/>
<polygon points="205.0,-624.0 208.1,-615.6 200.8,-616.0" fill="#1e1e1e"/>
<path d="M 165.0 0.0 L 205.0 0.0" fill="none" stroke="#1e1e1e" stroke-width="1.4"/>
<polygon points="205.0,0.0 196.8,3.7 196.8,-3.7" fill="#1e1e1e"/>
<path d="M -165.0 0.0 L -205.0 -312.0" fill="none" stroke="#1e1e1e" stroke-width="1.4"/>
<polygon points="-205.0,-312.0 -200.3,-304.3 -207.6,-303.4" fill="#1e1e1e"/>
<path d="M -165.0 0.0 L -205.0 293.0" fill="none" stroke="#1e1e1e" stroke-width="1.4"/>
<polygon points="-205.0,293.0 -207.5,284.4 -200.3,285.4" fill="#1e1e1e"/>
<path d="M 165.0 0.0 L 205.0 585.0" fill="none" stroke="#1e1e1e" stroke-width="1.4"/>
<polygon points="205.0,585.0 200.8,577.1 208.1,576.6" fill="#1e1e1e"/>
<rect x="554.0" y="-735.0" width="252.0" height="66.0" rx="8" fill="#b8e0ff" stroke="#1e1e1e" stroke-width="1.2"/>
<rect x="554.0" y="-657.0" width="252.0" height="66.0" rx="8" fill="#b8e0ff" stroke="#1e1e1e" stroke-width="1.2"/>
<rect x="554.0" y="-579.0" width="252.0" height="66.0" rx="8" fill="#b8e0ff" stroke="#1e1e1e" stroke-width="1.2"/>
<rect x="205.0" y="-665.0" width="270.0" height="82.0" rx="8" fill="#a5d8ff" stroke="#1e1e1e" stroke-width="1.2"/>
<rect x="900.0" y="-499.0" width="240.0" height="62.0" rx="8" fill="#d2f7d7" stroke="#1e1e1e" stroke-width="1.2"/>
<rect x="900.0" y="-421.0" width="240.0" height="62.0" rx="8" fill="#d2f7d7" stroke="#1e1e1e" stroke-width="1.2"/>
<rect x="900.0" y="-343.0" width="240.0" height="62.0" rx="8" fill="#d2f7d7" stroke="#1e1e1e" stroke-width="1.2"/>
<rect x="554.0" y="-423.0" width="252.0" height="66.0" rx="8" fill="#c2f4c9" stroke="#1e1e1e" stroke-width="1.2"/>
<rect x="900.0" y="-265.0" width="240.0" height="62.0" rx="8" fill="#d2f7d7" stroke="#1e1e1e" stroke-width="1.2"/>
<rect x="900.0" y="-187.0" width="240.0" height="62.0" rx="8" fill="#d2f7d7" stroke="#1e1e1e" stroke-width="1.2"/>
<rect x="900.0" y="-109.0" width="240.0" height="62.0" rx="8" fill="#d2f7d7" stroke="#1e1e1e" stroke-width="1.2"/>
<rect x="900.0" y="-31.0" width="240.0" height="62.0" rx="8" fill="#d2f7d7" stroke="#1e1e1e" stroke-width="1.2"/>
<rect x="554.0" y="-150.0" width="252.0" height="66.0" rx="8" fill="#c2f4c9" stroke="#1e1e1e" stroke-width="1.2"/>
<rect x="900.0" y="47.0" width="240.0" height="62.0" rx="8" fill="#d2f7d7" stroke="#1e1e1e" stroke-width="1.2"/>
<rect x="900.0" y="125.0" width="240.0" height="62.0" rx="8" fill="#d2f7d7" stroke="#1e1e1e" stroke-width="1.2"/>
<rect x="900.0" y="203.0" width="240.0" height="62.0" rx="8" fill="#d2f7d7" stroke="#1e1e1e" stroke-width="1.2"/>
<rect x="900.0" y="281.0" width="240.0" height="62.0" rx="8" fill="#d2f7d7" stroke="#1e1e1e" stroke-width="1.2"/>
<rect x="554.0" y="162.0" width="252.0" height="66.0" rx="8" fill="#c2f4c9" stroke="#1e1e1e" stroke-width="1.2"/>
<rect x="554.0" y="357.0" width="252.0" height="66.0" rx="8" fill="#c2f4c9" stroke="#1e1e1e" stroke-width="1.2"/>
<rect x="205.0" y="-41.0" width="270.0" height="82.0" rx="8" fill="#b2f2bb" stroke="#1e1e1e" stroke-width="1.2"/>
<rect x="-1140.0" y="-577.0" width="240.0" height="62.0" rx="8" fill="#ffe8cc" stroke="#1e1e1e" stroke-width="1.2"/>
<rect x="-1140.0" y="-499.0" width="240.0" height="62.0" rx="8" fill="#ffe8cc" stroke="#1e1e1e" stroke-width="1.2"/>
<rect x="-1140.0" y="-421.0" width="240.0" height="62.0" rx="8" fill="#ffe8cc" stroke="#1e1e1e" stroke-width="1.2"/>
<rect x="-806.0" y="-501.0" width="252.0" height="66.0" rx="8" fill="#ffe0bb" stroke="#1e1e1e" stroke-width="1.2"/>
<rect x="-1140.0" y="-343.0" width="240.0" height="62.0" rx="8" fill="#ffe8cc" stroke="#1e1e1e" stroke-width="1.2"/>
<rect x="-1140.0" y="-265.0" width="240.0" height="62.0" rx="8" fill="#ffe8cc" stroke="#1e1e1e" stroke-width="1.2"/>
<rect x="-1140.0" y="-187.0" width="240.0" height="62.0" rx="8" fill="#ffe8cc" stroke="#1e1e1e" stroke-width="1.2"/>
<rect x="-1140.0" y="-109.0" width="240.0" height="62.0" rx="8" fill="#ffe8cc" stroke="#1e1e1e" stroke-width="1.2"/>
<rect x="-1140.0" y="-31.0" width="240.0" height="62.0" rx="8" fill="#ffe8cc" stroke="#1e1e1e" stroke-width="1.2"/>
<rect x="-806.0" y="-189.0" width="252.0" height="66.0" rx="8" fill="#ffe0bb" stroke="#1e1e1e" stroke-width="1.2"/>
<rect x="-475.0" y="-353.0" width="270.0" height="82.0" rx="8" fill="#ffd8a8" stroke="#1e1e1e" stroke-width="1.2"/>
<rect x="-1140.0" y="47.0" width="240.0" height="62.0" rx="8" fill="#e3d9ff" stroke="#1e1e1e" stroke-width="1.2"/>
<rect x="-1140.0" y="125.0" width="240.0" height="62.0" rx="8" fill="#e3d9ff" stroke="#1e1e1e" stroke-width="1.2"/>
<rect x="-1140.0" y="203.0" width="240.0" height="62.0" rx="8" fill="#e3d9ff" stroke="#1e1e1e" stroke-width="1.2"/>
<rect x="-806.0" y="123.0" width="252.0" height="66.0" rx="8" fill="#dacdff" stroke="#1e1e1e" stroke-width="1.2"/>
<rect x="-1140.0" y="281.0" width="240.0" height="62.0" rx="8" fill="#e3d9ff" stroke="#1e1e1e" stroke-width="1.2"/>
<rect x="-1140.0" y="359.0" width="240.0" height="62.0" rx="8" fill="#e3d9ff" stroke="#1e1e1e" stroke-width="1.2"/>
<rect x="-1140.0" y="437.0" width="240.0" height="62.0" rx="8" fill="#e3d9ff" stroke="#1e1e1e" stroke-width="1.2"/>
<rect x="-1140.0" y="515.0" width="240.0" height="62.0" rx="8" fill="#e3d9ff" stroke="#1e1e1e" stroke-width="1.2"/>
<rect x="-806.0" y="396.0" width="252.0" height="66.0" rx="8" fill="#dacdff" stroke="#1e1e1e" stroke-width="1.2"/>
<rect x="-475.0" y="252.0" width="270.0" height="82.0" rx="8" fill="#d0bfff" stroke="#1e1e1e" stroke-width="1.2"/>
<rect x="554.0" y="435.0" width="252.0" height="66.0" rx="8" fill="#ffd4d4" stroke="#1e1e1e" stroke-width="1.2"/>
<rect x="554.0" y="513.0" width="252.0" height="66.0" rx="8" fill="#ffd4d4" stroke="#1e1e1e" stroke-width="1.2"/>
<rect x="554.0" y="591.0" width="252.0" height="66.0" rx="8" fill="#ffd4d4" stroke="#1e1e1e" stroke-width="1.2"/>
<rect x="554.0" y="669.0" width="252.0" height="66.0" rx="8" fill="#ffd4d4" stroke="#1e1e1e" stroke-width="1.2"/>
<rect x="205.0" y="544.0" width="270.0" height="82.0" rx="8" fill="#ffc9c9" stroke="#1e1e1e" stroke-width="1.2"/>
<rect x="-165.0" y="-52.0" width="330.0" height="104.0" rx="8" fill="#ffe066" stroke="#1e1e1e" stroke-width="1.2"/>
<text x="562.0" y="-708.8" font-size="17" fill="#1e1e1e">Geltungsbereich: Holz- und</text>
<text x="562.0" y="-687.5" font-size="17" fill="#1e1e1e">Ingenieurholzbau</text>
<text x="562.0" y="-620.2" font-size="17" fill="#1e1e1e">VOB Teil C / DIN 18334</text>
<text x="562.0" y="-552.4" font-size="16" fill="#1e1e1e">Ausschluss: Beton-Schalung,</text>
<text x="562.0" y="-532.4" font-size="16" fill="#1e1e1e">Parkett, Verbau</text>
<text x="213.0" y="-619.3" font-size="21" fill="#1e1e1e">Allgemeines</text>
<text x="908.0" y="-464.4" font-size="16" fill="#1e1e1e">Bauschnittholz (DIN 4074)</text>
<text x="908.0" y="-386.4" font-size="16" fill="#1e1e1e">Brettschichtholz (EN 14080)</text>
<text x="908.0" y="-308.4" font-size="16" fill="#1e1e1e">Holzschindeln (DIN 68119)</text>
<text x="562.0" y="-386.2" font-size="17" fill="#1e1e1e">Holzarten</text>
<text x="908.0" y="-230.4" font-size="16" fill="#1e1e1e">Sperrholz (DIN 68705)</text>
<text x="908.0" y="-152.4" font-size="16" fill="#1e1e1e">Spanplatten (DIN 68763)</text>
<text x="908.0" y="-74.4" font-size="16" fill="#1e1e1e">Faserplatten (EN 622)</text>
<text x="908.0" y="3.6" font-size="16" fill="#1e1e1e">OSB-Platten</text>
<text x="562.0" y="-113.2" font-size="17" fill="#1e1e1e">Holzhaltige Werkstoffe</text>
<text x="908.0" y="81.6" font-size="16" fill="#1e1e1e">Korkerzeugnisse</text>
<text x="908.0" y="159.6" font-size="16" fill="#1e1e1e">Schaumkunststoffe</text>
<text x="908.0" y="237.6" font-size="16" fill="#1e1e1e">Faserdämmstoffe</text>
<text x="908.0" y="315.6" font-size="16" fill="#1e1e1e">Zellulosefüllstoff</text>
<text x="562.0" y="198.8" font-size="17" fill="#1e1e1e">Dämmstoffe</text>
<text x="562.0" y="373.6" font-size="16" fill="#1e1e1e">Befestigungsmittel:</text>
<text x="562.0" y="393.6" font-size="16" fill="#1e1e1e">Schrauben, Nägel, Klammern,</text>
<text x="562.0" y="413.6" font-size="16" fill="#1e1e1e">Stahlteile</text>
<text x="213.0" y="4.7" font-size="21" fill="#1e1e1e">Stoffe und Bauteile</text>
<text x="-1132.0" y="-542.4" font-size="16" fill="#1e1e1e">Prüfung auf Baufeuchte</text>
<text x="-1132.0" y="-464.4" font-size="16" fill="#1e1e1e">Toleranzen nach DIN 18202</text>
<text x="-1132.0" y="-396.4" font-size="16" fill="#1e1e1e">Holzschutz</text>
<text x="-1132.0" y="-376.4" font-size="16" fill="#1e1e1e">(baulich/chemisch)</text>
<text x="-798.0" y="-464.2" font-size="17" fill="#1e1e1e">Anforderungen</text>
<text x="-1132.0" y="-308.4" font-size="16" fill="#1e1e1e">Dachlattung und Schalung</text>
<text x="-1132.0" y="-240.4" font-size="16" fill="#1e1e1e">Wand- und</text>
<text x="-1132.0" y="-220.4" font-size="16" fill="#1e1e1e">Deckenbekleidungen</text>
<text x="-1132.0" y="-152.4" font-size="16" fill="#1e1e1e">Fußböden und Blindböden</text>
<text x="-1132.0" y="-74.4" font-size="16" fill="#1e1e1e">Treppenbau (DIN 18065)</text>
<text x="-1132.0" y="3.6" font-size="16" fill="#1e1e1e">Trockenbau (Gipskarton)</text>
<text x="-798.0" y="-152.2" font-size="17" fill="#1e1e1e">Bauteile</text>
<text x="-467.0" y="-307.3" font-size="21" fill="#1e1e1e">Ausführung</text>
<text x="-1132.0" y="81.6" font-size="16" fill="#1e1e1e">Gerüste bis 3,50 m Höhe</text>
<text x="-1132.0" y="159.6" font-size="16" fill="#1e1e1e">Kleine Befestigungsmittel</text>
<text x="-1132.0" y="237.6" font-size="16" fill="#1e1e1e">Muster vorlegen</text>
<text x="-798.0" y="159.8" font-size="17" fill="#1e1e1e">Nebenleistungen</text>
<text x="-1132.0" y="315.6" font-size="16" fill="#1e1e1e">Gerüste über 3,50 m Höhe</text>
<text x="-1132.0" y="393.6" font-size="16" fill="#1e1e1e">Statische Nachweise</text>
<text x="-1132.0" y="471.6" font-size="16" fill="#1e1e1e">Bekämpfender Holzschutz</text>
<text x="-1132.0" y="549.6" font-size="16" fill="#1e1e1e">Herstellen von Aussparungen</text>
<text x="-798.0" y="432.8" font-size="17" fill="#1e1e1e">Besondere Leistungen</text>
<text x="-467.0" y="297.7" font-size="21" fill="#1e1e1e">Leistungen</text>
<text x="562.0" y="471.8" font-size="17" fill="#1e1e1e">Raummaß (m³) für Balken</text>
<text x="562.0" y="539.2" font-size="17" fill="#1e1e1e">Flächenmaß (m²) für</text>
<text x="562.0" y="560.5" font-size="17" fill="#1e1e1e">Schalung/Bekleidung</text>
<text x="562.0" y="627.8" font-size="17" fill="#1e1e1e">Längenmaß (m) für Leisten</text>
<text x="562.0" y="695.2" font-size="17" fill="#1e1e1e">Übermessungsregeln:</text>
<text x="562.0" y="716.5" font-size="17" fill="#1e1e1e">Öffnungen bis 2,5 m²</text>
<text x="213.0" y="589.7" font-size="21" fill="#1e1e1e">Abrechnung</text>
<text x="-157.0" y="-26.7" font-size="26" fill="#1e1e1e">🧠 Zimmer- und</text>
<text x="-157.0" y="5.8" font-size="26" fill="#1e1e1e">Holzbauarbeiten (ATV</text>
<text x="-157.0" y="38.3" font-size="26" fill="#1e1e1e">DIN 18334)</text>
</svg>