<svg xmlns="http://www.w3.org/2000/svg" viewBox="-1164.0 -1071.0 2328.0 2142.0" font-family="Segoe UI, system-ui, sans-serif">
<path d="M 475.0 -897.0 L 554.0 -1014.0" fill="none" stroke="#1e1e1e" stroke-width="1.4"/>
<polygon points="554.0,-1014.0 552.4,-1005.1 546.4,-1009.2" fill="#1e1e1e"/>
<path d="M 475.0 -897.0 L 554.0 -936.0" fill="none" stroke="#1e1e1e" stroke-width="1.4"/>
<polygon points="554.0,-936.0 548.3,-929.1 545.0,-935.7" fill="#1e1e1e"/>
<path d="M 475.0 -897.0 L 554.0 -858.0" fill="none" stroke="#1e1e1e" stroke-width="1.4"/>
<polygon points="554.0,-858.0 545.0,-858.3 548.3,-864.9" fill="#1e1e1e"/>
<path d="M 475.0 -897.0 L 554.0 -780.0" fill="none" stroke="#1e1e1e" stroke-width="1.4"/>
<polygon points="554.0,-780.0 546.4,-784.8 552.4,-788.9" fill="#1e1e1e"/>
<path d="M 806.0 -585.0 L 900.0 -702.0" fill="none" stroke="#1e1e1e" stroke-width="1.4"/>
<polygon points="900.0,-702.0 897.7,-693.3 892.0,-697.9" fill="#1e1e1e"/>
<path d="M 806.0 -585.0 L 900.0 -624.0" fill="none" stroke="#1e1e1e" stroke-width="1.4"/>
<polygon points="900.0,-624.0 893.8,-617.5 891.0,-624.2" fill="#1e1e1e"/>
<path d="M 806.0 -585.0 L 900.0 -546.0" fill="none" stroke="#1e1e1e" stroke-width="1.4"/>
<polygon points="900.0,-546.0 891.0,-545.8 893.8,-552.5" fill="#1e1e1e"/>
<path d="M 806.0 -585.0 L 900.0 -468.0" fill="none" stroke="#1e1e1e" stroke-width="1.4"/>
<polygon points="900.0,-468.0 892.0,-472.1 897.7,-476.7" fill="#1e1e1e"/>
<path d="M 806.0 -351.0 L 900.0 -390.0" fill="none" stroke="#1e1e1e" stroke-width="1.4"/>
<polygon points="900.0,-390.0 893.8,-383.5 891.0,-390.2" fill="#1e1e1e"/>
<path d="M 806.0 -351.0 L 900.0 -312.0" fill="none" stroke="#1e1e1e" stroke-width="1.4"/>
<polygon points="900.0,-312.0 891.0,-311.8 893.8,-318.5" fill="#1e1e1e"/>
<path d="M 806.0 -156.0 L 900.0 -234.0" fill="none" stroke="#1e1e1e" stroke-width="1.4"/>
<polygon points="900.0,-234.0 896.0,-225.9 891.3,-231.6" fill="#1e1e1e"/>
<path d="M 806.0 -156.0 L 900.0 -156.0" fill="none" stroke="#1e1e1e" stroke-width="1.4"/>
<polygon points="900.0,-156.0 891.8,-152.3 891.8,-159.7" fill="#1e1e1e"/>
<path d="M 806.0 -156.0 L 900.0 -78.0" fill="none" stroke="#1e1e1e" stroke-width="1.4"/>
<polygon points="900.0,-78.0 891.3,-80.4 896.0,-86.1" fill="#1e1e1e"/>
<path d="M 806.0 39.0 L 900.0 0.0" fill="none" stroke="#1e1e1e" stroke-width="1.4"/>
<polygon points="900.0,0.0 893.8,6.5 891.0,-0.2" fill="#1e1e1e"/>
<path d="M 806.0 39.0 L 900.0 78.0" fill="none" stroke="#1e1e1e" stroke-width="1.4"/>
<polygon points="900.0,78.0 891.0,78.2 893.8,71.5" fill="#1e1e1e"/>
<path d="M 475.0 -175.0 L 554.0 -585.0" fill="none" stroke="#1e1e1e" stroke-width="1.4"/>
<polygon points="554.0,-585.0 556.0,-576.2 548.8,-577.6" fill="#1e1e1e"/>
<path d="M 475.0 -175.0 L 554.0 -351.0" fill="none" stroke="#1e1e1e" stroke-width="1.4"/>
<polygon points="554.0,-351.0 554.0,-342.0 547.3,-345.0" fill="#1e1e1e"/>
<path d="M 475.0 -175.0 L 554.0 -156.0" fill="none" stroke="#1e1e1e" stroke-width="1.4"/>
<polygon points="554.0,-156.0 545.2,-154.4 546.9,-161.5" fill="#1e1e1e"/>
<path d="M 475.0 -175.0 L 554.0 39.0" fill="none" stroke="#1e1e1e" stroke-width="1.4"/>
<polygon points="554.0,39.0 547.7,32.6 554.6,30.0" fill="#1e1e1e"/>
<path d="M 475.0 -175.0 L 554.0 156.0" fill="none" stroke="#1e1e1e" stroke-width="1.4"/>
<polygon points="554.0,156.0 548.5,148.9 555.7,147.2" fill="#1e1e1e"/>
<path d="M 475.0 -175.0 L 554.0 234.0" fill="none" stroke="#1e1e1e" stroke-width="1.4"/>
<polygon points="554.0,234.0 548.8,226.6 556.0,225.2" fill="#1e1e1e"/>
<path d="M 806.0 390.0 L 900.0 312.0" fill="none" stroke="#1e1e1e" stroke-width="1.4"/>
<polygon points="900.0,312.0 896.0,320.1 891.3,314.4" fill="#1e1e1e"/>
<path d="M 806.0 390.0 L 900.0 390.0" fill="none" stroke="#1e1e1e" stroke-width="1.4"/>
<polygon points="900.0,390.0 891.8,393.7 891.8,386.3" fill="#1e1e1e"/>
<path d="M 806.0 390.0 L 900.0 468.0" fill="none" stroke="#1e1e1e" stroke-width="1.4"/>
<polygon points="900.0,468.0 891.3,465.6 896.0,459.9" fill="#1e1e1e"/>
<path d="M 806.0 624.0 L 900.0 546.0" fill="none" stroke="#1e1e1e" stroke-width="1.4"/>
<polygon points="900.0,546.0 896.0,554.1 891.3,548.4" fill="#1e1e1e"/>
<path d="M 806.0 624.0 L 900.0 624.0" fill="none" stroke="#1e1e1e" stroke-width="1.4"/>
<polygon points="900.0,624.0 891.8,627.7 891.8,620.3" fill="#1e1e1e"/>
<path d="M 806.0 624.0 L 900.0 702.0" fill="none" stroke="#1e1e1e" stroke-width="1.4"/>
<polygon points="900.0,702.0 891.3,699.6 896.0,693.9" fill="#1e1e1e"/>
<path d="M 475.0 507.0 L 554.0 390.0" fill="none" stroke="#1e1e1e" stroke-width="1.4"/>
<polygon points="554.0,390.0 552.4,398.9 546.4,394.8" fill="#1e1e1e"/>
<path d="M 475.0 507.0 L 554.0 624.0" fill="none" stroke="#1e1e1e" stroke-width="1.4"/>
<polygon points="554.0,624.0 546.4,619.2 552.4,615.1" fill="#1e1e1e"/>
<path d="M -806.0 -819.0 L -900.0 -858.0" fill="none" stroke="#1e1e1e" stroke-width="1.4"/>
<polygon points="-900.0,-858.0 -891.0,-858.2 -893.8,-851.5" fill="#1e1e1e"/>
<path d="M -806.0 -819.0 L -900.0 -780.0" fill="none" stroke="#1e1e1e" stroke-width="1.4"/>
<polygon points="-900.0,-780.0 -893.8,-786.5 -891.0,-779.8" fill="#1e1e1e"/>
<path d="M -806.0 -663.0 L -900.0 -702.0" fill="none" stroke="#1e1e1e" stroke-width="1.4"/>
<polygon points="-900.0,-702.0 -891.0,-702.2 -893.8,-695.5" fill="#1e1e1e"/>
<path d="M -806.0 -663.0 L -900.0 -624.0" fill="none" stroke="#1e1e1e" stroke-width="1.4"/>
<polygon points="-900.0,-624.0 -893.8,-630.5 -891.0,-623.8" fill="#1e1e1e"/>
<path d="M -806.0 -507.0 L -900.0 -546.0" fill="none" stroke="#1e1e1e" stroke-width="1.4"/>
<polygon points="-900.0,-546.0 -891.0,-546.2 -893.8,-539.5" fill="#1e1e1e"/>
<path d="M -806.0 -507.0 L -900.0 -468.0" fill="none" stroke="#1e1e1e" stroke-width="1.4"/>
<polygon points="-900.0,-468.0 -893.8,-474.5 -891.0,-467.8" fill="#1e1e1e"/>
<path d="M -806.0 -351.0 L -900.0 -390.0" fill="none" stroke="#1e1e1e" stroke-width="1.4"/>
<polygon points="-900.0,-390.0 -891.0,-390.2 -893.8,-383.5" fill="#1e1e1e"/>
<path d="M -806.0 -351.0 L -900.0 -312.0" fill="none" stroke="#1e1e1e" stroke-width="1.4"/>
<polygon points="-900.0,-312.0 -893.8,-318.5 -891.0,-311.8" fill="#1e1e1e"/>
<path d="M -475.0 -527.0 L -554.0 -819.0" fill="none" stroke="#1e1e1e" stroke-width="1.4"/>
<polygon points="-554.0,-819.0 -548.3,-812.0 -555.4,-810.1" fill="#1e1e1e"/>
<path d="M -475.0 -527.0 L -554.0 -663.0" fill="none" stroke="#1e1e1e" stroke-width="1.4"/>
<polygon points="-554.0,-663.0 -546.7,-657.7 -553.0,-654.1" fill="#1e1e1e"/>
<path d="M -475.0 -527.0 L -554.0 -507.0" fill="none" stroke="#1e1e1e" stroke-width="1.4"/>
<polygon points="-554.0,-507.0 -546.9,-512.6 -545.1,-505.5" fill="#1e1e1e"/>
<path d="M -475.0 -527.0 L -554.0 -351.0" fill="none" stroke="#1e1e1e" stroke-width="1.4"/>
<polygon points="-554.0,-351.0 -554.0,-360.0 -547.3,-357.0" fill="#1e1e1e"/>
<path d="M -475.0 -527.0 L -554.0 -234.0" fill="none" stroke="#1e1e1e" stroke-width="1.4"/>
<polygon points="-554.0,-234.0 -555.4,-242.9 -548.3,-241.0" fill="#1e1e1e"/>
<path d="M -806.0 -117.0 L -900.0 -156.0" fill="none" stroke="#1e1e1e" stroke-width="1.4"/>
<polygon points="-900.0,-156.0 -891.0,-156.2 -893.8,-149.5" fill="#1e1e1e"/>
<path d="M -806.0 -117.0 L -900.0 -78.0" fill="none" stroke="#1e1e1e" stroke-width="1.4"/>
<polygon points="-900.0,-78.0 -893.8,-84.5 -891.0,-77.8" fill="#1e1e1e"/>
<path d="M -806.0 39.0 L -900.0 0.0" fill="none" stroke="#1e1e1e" stroke-width="1.4"/>
<polygon points="-900.0,0.0 -891.0,-0.2 -893.8,6.5" fill="#1e1e1e"/>
<path d="M -806.0 39.0 L -900.0 78.0" fill="none" stroke="#1e1e1e" stroke-width="1.4"/>
<polygon points="-900.0,78.0 -893.8,71.5 -891.0,78.2" fill="#1e1e1e"/>
<path d="M -806.0 195.0 L -900.0 156.0" fill="none" stroke="#1e1e1e" stroke-width="1.4"/>
<polygon points="-900.0,156.0 -891.0,155.8 -893.8,162.5" fill="#1e1e1e"/>
<path d="M -806.0 195.0 L -900.0 234.0" fill="none" stroke="#1e1e1e" stroke-width="1.4"/>
<polygon points="-900.0,234.0 -893.8,227.5 -891.0,234.2" fill="#1e1e1e"/>
<path d="M -475.0 97.0 L -554.0 -117.0" fill="none" stroke="#1e1e1e" stroke-width="1.4"/>
<polygon points="-554.0,-117.0 -547.7,-110.6 -554.6,-108.0" fill="#1e1e1e"/>
<path d="M -475.0 97.0 L -554.0 39.0" fill="none" stroke="#1e1e1e" stroke-width="1.4"/>
<polygon points="-554.0,39.0 -545.2,40.9 -549.5,46.8" fill="#1e1e1e"/>
<path d="M -475.0 97.0 L -554.0 195.0" fill="none" stroke="#1e1e1e" stroke-width="1.4"/>
<polygon points="-554.0,195.0 -551.7,186.3 -546.0,190.9" fill="#1e1e1e"/>
<path d="M -475.0 97.0 L -554.0 312.0" fill="none" stroke="#1e1e1e" stroke-width="1.4"/>
<polygon points="-554.0,312.0 -554.6,303.0 -547.7,305.6" fill="#1e1e1e"/>
<path d="M 475.0 897.0 L 554.0 780.0" fill="none" stroke="#1e1e1e" stroke-width="1.4"/>
<polygon points="554.0,780.0 552.4,788.9 546.4,784.8" fill="#1e1e1e"/>
<path d="M 475.0 897.0 L 554.0 858.0" fill="none" stroke="#1e1e1e" stroke-width="1.4"/>
<polygon points="554.0,858.0 548.3,864.9 545.0,858.3" fill="#1e1e1e"/>
<path d="M 475.0 897.0 L 554.0 936.0" fill="none" stroke="#1e1e1e" stroke-width="1.4"/>
<polygon points="554.0,936.0 545.0,935.7 548.3,929.1" fill="#1e1e1e"/>
<path d="M 475.0 897.0 L 554.0 1014.0" fill="none" stroke="#1e1e1e" stroke-width="1.4"/>
<polygon points="554.0,1014.0 546.4,1009.2 552.4,1005.1" fill="#1e1e1e"/>
<path d="M -806.0 468.0 L -900.0 390.0" fill="none" stroke="#1e1e1e" stroke-width="1.4"/>
<polygon points="-900.0,390.0 -891.3,392.4 -896.0,398.1" fill="#1e1e1e"/>
<path d="M -806.0 468.0 L -900.0 468.0" fill="none" stroke="#1e1e1e" stroke-width="1.4"/>
<polygon points="-900.0,468.0 -891.8,464.3 -891.8,471.7" fill="#1e1e1e"/>
<path d="M -806.0 468.0 L -900.0 546.0" fill="none" stroke="#1e1e1e" stroke-width="1.4"/>
<polygon points="-900.0,546.0 -896.0,537.9 -891.3,543.6" fill="#1e1e1e"/>
<path d="M -475.0 585.0 L -554.0 468.0" fill="none" stroke="#1e1e1e" stroke-width="1.4"/>
<polygon points="-554.0,468.0 -546.4,472.8 -552.4,476.9" fill="#1e1e1e"/>
<path d="M -475.0 585.0 L -554.0 624.0" fill="none" stroke="#1e1e1e" stroke-width="1.4"/>
<polygon points="-554.0,624.0 -548.3,617.1 -545.0,623.7" fill="#1e1e1e"/>
<path d="M -475.0 585.0 L -554.0 702.0" fill="none" stroke="#1e1e1e" stroke-width="1.4"/>
<polygon points="-554.0,702.0 -552.4,693.1 -546.4,697.2" fill="#1e1e1e"/>
<path d="M -475.0 819.0 L -554.0 780.0" fill="none" stroke="#1e1e1e" stroke-width="1.4"/>
<polygon points="-554.0,780.0 -545.0,780.3 -548.3,786.9" fill="#1e1e1e"/>
<path d="M -475.0 819.0 L -554.0 858.0" fill="none" stroke="#1e1e1e" stroke-width="1.4"/>
<polygon points="-554.0,858.0 -548.3,851.1 -545.0,857.7" fill="#1e1e1e"/>
<path d="M 165.0 0.0 L 205.0 -897.0" fill="none" stroke="#1e1e1e" stroke-width="1.4"/>
<polygon points="205.0,-897.0 208.3,-888.6 201.0,-889.0" fill="#1e1e1e"/>
<path d="M 165.0 0.0 L 205.0 -175.0" fill="none" stroke="#1e1e1e" stroke-width="1.4"/>
<polygon points="205.0,-175.0 206.7,-166.2 199.6,-167.8" fill="#1e1e1e"/>
<path d="M 165.0 0.0 L 205.0 507.0" fill="none" stroke="#1e1e1e" stroke-width="1.4"/>
<polygon points="205.0,507.0 200.7,499.1 208.0,498.5" fill="#1e1e1e"/>
<path d="M -165.0 0.0 L -205.0 -527.0" fill="none" stroke="#1e1e1e" stroke-width="1.4"/>
<polygon points="-205.0,-527.0 -200.7,-519.1 -208.0,-518.5" fill="#1e1e1e"/>
<path d="M -165.0 0.0 L -205.0 97.0" fill="none" stroke="#1e1e1e" stroke-width="1.4"/>
<polygon points="-205.0,97.0 -205.3,88.0 -198.5,90.8" fill="#1e1e1e"/>
<path d="M 165.0 0.0 L 205.0 897.0" fill="none" stroke="#1e1e1e" stroke-width="1.4"/>
<polygon points="205.0,897.0 201.0,889.0 208.3,888.6" fill="#1e1e1e"/>
<path d="M -165.0 0.0 L -205.0 585.0" fill="none" stroke="#1e1e1e" stroke-width="1.4"/>
<polygon points="-205.0,585.0 -208.1,576.6 -200.8,577.1" fill="#1e1e1e"/>
<path d="M -165.0 0.0 L -205.0 819.0" fill="none" stroke="#1e1e1e" stroke-width="1.4"/>
<polygon points="-205.0,819.0 -208.3,810.6 -200.9,811.0" fill="#1e1e1e"/>
<rect x="554.0" y="-1047.0" width="252.0" height="66.0" rx="8" fill="#b8e0ff" stroke="#1e1e1e" stroke-width="1.2"/>
<rect x="554.0" y="-969.0" width="252.0" height="66.0" rx="8" fill="#b8e0ff" stroke="#1e1e1e" stroke-width="1.2"/>
<rect x="554.0" y="-891.0" width="252.0" height="66.0" rx="8" fill="#b8e0ff" stroke="#1e1e1e" stroke-width="1.2"/>
<rect x="554.0" y="-813.0" width="252.0" height="66.0" rx="8" fill="#b8e0ff" stroke="#1e1e1e" stroke-width="1.2"/>
<rect x="205.0" y="-938.0" width="270.0" height="82.0" rx="8" fill="#a5d8ff" stroke="#1e1e1e" stroke-width="1.2"/>
<rect x="900.0" y="-733.0" width="240.0" height="62.0" rx="8" fill="#d2f7d7" stroke="#1e1e1e" stroke-width="1.2"/>
<rect x="900.0" y="-655.0" width="240.0" height="62.0" rx="8" fill="#d2f7d7" stroke="#1e1e1e" stroke-width="1.2"/>
<rect x="900.0" y="-577.0" width="240.0" height="62.0" rx="8" fill="#d2f7d7" stroke="#1e1e1e" stroke-width="1.2"/>
<rect x="900.0" y="-499.0" width="240.0" height="62.0" rx="8" fill="#d2f7d7" stroke="#1e1e1e" stroke-width="1.2"/>
<rect x="554.0" y="-618.0" width="252.0" height="66.0" rx="8" fill="#c2f4c9" stroke="#1e1e1e" stroke-width="1.2"/>
<rect x="900.0" y="-421.0" width="240.0" height="62.0" rx="8" fill="#d2f7d7" stroke="#1e1e1e" stroke-width="1.2"/>
<rect x="900.0" y="-343.0" width="240.0" height="62.0" rx="8" fill="#d2f7d7" stroke="#1e1e1e" stroke-width="1.2"/>
<rect x="554.0" y="-384.0" width="252.0" height="66.0" rx="8" fill="#c2f4c9" stroke="#1e1e1e" stroke-width="1.2"/>
<rect x="900.0" y="-265.0" width="240.0" height="62.0" rx="8" fill="#d2f7d7" stroke="#1e1e1e" stroke-width="1.2"/>
<rect x="900.0" y="-187.0" width="240.0" height="62.0" rx="8" fill="#d2f7d7" stroke="#1e1e1e" stroke-width="1.2"/>
<rect x="900.0" y="-109.0" width="240.0" height="62.0" rx="8" fill="#d2f7d7" stroke="#1e1e1e" stroke-width="1.2"/>
<rect x="554.0" y="-189.0" width="252.0" height="66.0" rx="8" fill="#c2f4c9" stroke="#1e1e1e" stroke-width="1.2"/>
<rect x="900.0" y="-31.0" width="240.0" height="62.0" rx="8" fill="#d2f7d7" stroke="#1e1e1e" stroke-width="1.2"/>
<rect x="900.0" y="47.0" width="240.0" height="62.0" rx="8" fill="#d2f7d7" stroke="#1e1e1e" stroke-width="1.2"/>
<rect x="554.0" y="6.0" width="252.0" height="66.0" rx="8" fill="#c2f4c9" stroke="#1e1e1e" stroke-width="1.2"/>
<rect x="554.0" y="123.0" width="252.0" height="66.0" rx="8" fill="#c2f4c9" stroke="#1e1e1e" stroke-width="1.2"/>
<rect x="554.0" y="201.0" width="252.0" height="66.0" rx="8" fill="#c2f4c9" stroke="#1e1e1e" stroke-width="1.2"/>
<rect x="205.0" y="-216.0" width="270.0" height="82.0" rx="8" fill="#b2f2bb" stroke="#1e1e1e" stroke-width="1.2"/>
<rect x="900.0" y="281.0" width="240.0" height="62.0" rx="8" fill="#ffe8cc" stroke="#1e1e1e" stroke-width="1.2"/>
<rect x="900.0" y="359.0" width="240.0" height="62.0" rx="8" fill="#ffe8cc" stroke="#1e1e1e" stroke-width="1.2"/>
<rect x="900.0" y="437.0" width="240.0" height="62.0" rx="8" fill="#ffe8cc" stroke="#1e1e1e" stroke-width="1.2"/>
<rect x="554.0" y="357.0" width="252.0" height="66.0" rx="8" fill="#ffe0bb" stroke="#1e1e1e" stroke-width="1.2"/>
<rect x="900.0" y="515.0" width="240.0" height="62.0" rx="8" fill="#ffe8cc" stroke="#1e1e1e" stroke-width="1.2"/>
<rect x="900.0" y="593.0" width="240.0" height="62.0" rx="8" fill="#ffe8cc" stroke="#1e1e1e" stroke-width="1.2"/>
<rect x="900.0" y="671.0" width="240.0" height="62.0" rx="8" fill="#ffe8cc" stroke="#1e1e1e" stroke-width="1.2"/>
<rect x="554.0" y="591.0" width="252.0" height="66.0" rx="8" fill="#ffe0bb" stroke="#1e1e1e" stroke-width="1.2"/>
<rect x="205.0" y="466.0" width="270.0" height="82.0" rx="8" fill="#ffd8a8" stroke="#1e1e1e" stroke-width="1.2"/>
<rect x="-1140.0" y="-889.0" width="240.0" height="62.0" rx="8" fill="#e3d9ff" stroke="#1e1e1e" stroke-width="1.2"/>
<rect x="-1140.0" y="-811.0" width="240.0" height="62.0" rx="8" fill="#e3d9ff" stroke="#1e1e1e" stroke-width="1.2"/>
<rect x="-806.0" y="-852.0" width="252.0" height="66.0" rx="8" fill="#dacdff" stroke="#1e1e1e" stroke-width="1.2"/>
<rect x="-1140.0" y="-733.0" width="240.0" height="62.0" rx="8" fill="#e3d9ff" stroke="#1e1e1e" stroke-width="1.2"/>
<rect x="-1140.0" y="-655.0" width="240.0" height="62.0" rx="8" fill="#e3d9ff" stroke="#1e1e1e" stroke-width="1.2"/>
<rect x="-806.0" y="-696.0" width="252.0" height="66.0" rx="8" fill="#dacdff" stroke="#1e1e1e" stroke-width="1.2"/>
<rect x="-1140.0" y="-577.0" width="240.0" height="62.0" rx="8" fill="#e3d9ff" stroke="#1e1e1e" stroke-width="1.2"/>
<rect x="-1140.0" y="-499.0" width="240.0" height="62.0" rx="8" fill="#e3d9ff" stroke="#1e1e1e" stroke-width="1.2"/>
<rect x="-806.0" y="-540.0" width="252.0" height="66.0" rx="8" fill="#dacdff" stroke="#1e1e1e" stroke-width="1.2"/>
<rect x="-1140.0" y="-421.0" width="240.0" height="62.0" rx="8" fill="#e3d9ff" stroke="#1e1e1e" stroke-width="1.2"/>
<rect x="-1140.0" y="-343.0" width="240.0" height="62.0" rx="8" fill="#e3d9ff" stroke="#1e1e1e" stroke-width="1.2"/>
<rect x="-806.0" y="-384.0" width="252.0" height="66.0" rx="8" fill="#dacdff" stroke="#1e1e1e" stroke-width="1.2"/>
<rect x="-806.0" y="-267.0" width="252.0" height="66.0" rx="8" fill="#dacdff" stroke="#1e1e1e" stroke-width="1.2"/>
<rect x="-475.0" y="-568.0" width="270.0" height="82.0" rx="8" fill="#d0bfff" stroke="#1e1e1e" stroke-width="1.2"/>
<rect x="-1140.0" y="-187.0" width="240.0" height="62.0" rx="8" fill="#ffdfdf" stroke="#1e1e1e" stroke-width="1.2"/>
<rect x="-1140.0" y="-109.0" width="240.0" height="62.0" rx="8" fill="#ffdfdf" stroke="#1e1e1e" stroke-width="1.2"/>
<rect x="-806.0" y="-150.0" width="252.0" height="66.0" rx="8" fill="#ffd4d4" stroke="#1e1e1e" stroke-width="1.2"/>
<rect x="-1140.0" y="-31.0" width="240.0" height="62.0" rx="8" fill="#ffdfdf" stroke="#1e1e1e" stroke-width="1.2"/>
<rect x="-1140.0" y="47.0" width="240.0" height="62.0" rx="8" fill="#ffdfdf" stroke="#1e1e1e" stroke-width="1.2"/>
<rect x="-806.0" y="6.0" width="252.0" height="66.0" rx="8" fill="#ffd4d4" stroke="#1e1e1e" stroke-width="1.2"/>
<rect x="-1140.0" y="125.0" width="240.0" height="62.0" rx="8" fill="#ffdfdf" stroke="#1e1e1e" stroke-width="1.2"/>
<rect x="-1140.0" y="203.0" width="240.0" height="62.0" rx="8" fill="#ffdfdf" stroke="#1e1e1e" stroke-width="1.2"/>
<rect x="-806.0" y="162.0" width="252.0" height="66.0" rx="8" fill="#ffd4d4" stroke="#1e1e1e" stroke-width="1.2"/>
<rect x="-806.0" y="279.0" width="252.0" height="66.0" rx="8" fill="#ffd4d4" stroke="#1e1e1e" stroke-width="1.2"/>
<rect x="-475.0" y="56.0" width="270.0" height="82.0" rx="8" fill="#ffc9c9" stroke="#1e1e1e" stroke-width="1.2"/>
<rect x="554.0" y="747.0" width="252.0" height="66.0" rx="8" fill="#fff0af" stroke="#1e1e1e" stroke-width="1.2"/>
<rect x="554.0" y="825.0" width="252.0" height="66.0" rx="8" fill="#fff0af" stroke="#1e1e1e" stroke-width="1.2"/>
<rect x="554.0" y="903.0" width="252.0" height="66.0" rx="8" fill="#fff0af" stroke="#1e1e1e" stroke-width="1.2"/>
<rect x="554.0" y="981.0" width="252.0" height="66.0" rx="8" fill="#fff0af" stroke="#1e1e1e" stroke-width="1.2"/>
<rect x="205.0" y="856.0" width="270.0" height="82.0" rx="8" fill="#ffec99" stroke="#1e1e1e" stroke-width="1.2"/>
<rect x="-1140.0" y="359.0" width="240.0" height="62.0" rx="8" fill="#c3f2f7" stroke="#1e1e1e" stroke-width="1.2"/>
<rect x="-1140.0" y="437.0" width="240.0" height="62.0" rx="8" fill="#c3f2f7" stroke="#1e1e1e" stroke-width="1.2"/>
<rect x="-1140.0" y="515.0" width="240.0" height="62.0" rx="8" fill="#c3f2f7" stroke="#1e1e1e" stroke-width="1.2"/>
<rect x="-806.0" y="435.0" width="252.0" height="66.0" rx="8" fill="#afedf4" stroke="#1e1e1e" stroke-width="1.2"/>
<rect x="-806.0" y="591.0" width="252.0" height="66.0" rx="8" fill="#afedf4" stroke="#1e1e1e" stroke-width="1.2"/>
<rect x="-806.0" y="669.0" width="252.0" height="66.0" rx="8" fill="#afedf4" stroke="#1e1e1e" stroke-width="1.2"/>
<rect x="-475.0" y="544.0" width="270.0" height="82.0" rx="8" fill="#99e9f2" stroke="#1e1e1e" stroke-width="1.2"/>
<rect x="-806.0" y="747.0" width="252.0" height="66.0" rx="8" fill="#f1ccfb" stroke="#1e1e1e" stroke-width="1.2"/>
<rect x="-806.0" y="825.0" width="252.0" height="66.0" rx="8" fill="#f1ccfb" stroke="#1e1e1e" stroke-width="1.2"/>
<rect x="-475.0" y="778.0" width="270.0" height="82.0" rx="8" fill="#eebefa" stroke="#1e1e1e" stroke-width="1.2"/>
<rect x="-165.0" y="-52.0" width="330.0" height="104.0" rx="8" fill="#ffe066" stroke="#1e1e1e" stroke-width="1.2"/>
<text x="562.0" y="-1020.8" font-size="17" fill="#1e1e1e">Kundenorientierte</text>
<text x="562.0" y="-999.5" font-size="17" fill="#1e1e1e">Unternehmensstrategie</text>
<text x="562.0" y="-942.8" font-size="17" fill="#1e1e1e">Abgrenzung: Werbung,</text>
<text x="562.0" y="-921.5" font-size="17" fill="#1e1e1e">Vertrieb, Marketing</text>
<text x="562.0" y="-864.8" font-size="17" fill="#1e1e1e">AIDA-Modell: Attention,</text>
<text x="562.0" y="-843.5" font-size="17" fill="#1e1e1e">Interest, Desire, Action</text>
<text x="562.0" y="-786.8" font-size="17" fill="#1e1e1e">Historie: Produkt- bis</text>
<text x="562.0" y="-765.5" font-size="17" fill="#1e1e1e">Marktorientierung</text>
<text x="213.0" y="-892.3" font-size="21" fill="#1e1e1e">Grundlagen &amp; Definition</text>
<text x="908.0" y="-708.4" font-size="16" fill="#1e1e1e">Soziodemografisch: Alter,</text>
<text x="908.0" y="-688.4" font-size="16" fill="#1e1e1e">Einkommen</text>
<text x="908.0" y="-620.4" font-size="16" fill="#1e1e1e">Geografisch: Region, Stadt</text>
<text x="908.0" y="-552.4" font-size="16" fill="#1e1e1e">Psychografisch: Werte,</text>
<text x="908.0" y="-532.4" font-size="16" fill="#1e1e1e">Ästhetik</text>
<text x="908.0" y="-474.4" font-size="16" fill="#1e1e1e">Verhaltensorientiert:</text>
<text x="908.0" y="-454.4" font-size="16" fill="#1e1e1e">Sanierungsabsicht</text>
<text x="562.0" y="-581.2" font-size="17" fill="#1e1e1e">Zielgruppenanalyse</text>
<text x="908.0" y="-386.4" font-size="16" fill="#1e1e1e">Intern: Stärken &amp; Schwächen</text>
<text x="908.0" y="-308.4" font-size="16" fill="#1e1e1e">Extern: Chancen &amp; Risiken</text>
<text x="562.0" y="-347.2" font-size="17" fill="#1e1e1e">SWOT-Analyse</text>
<text x="908.0" y="-240.4" font-size="16" fill="#1e1e1e">Identifikation: Branche,</text>
<text x="908.0" y="-220.4" font-size="16" fill="#1e1e1e">Region</text>
<text x="908.0" y="-162.4" font-size="16" fill="#1e1e1e">Kriterien: Image, Qualität,</text>
<text x="908.0" y="-142.4" font-size="16" fill="#1e1e1e">Preise</text>
<text x="908.0" y="-84.4" font-size="16" fill="#1e1e1e">Nutzwertanalyse &amp;</text>
<text x="908.0" y="-64.4" font-size="16" fill="#1e1e1e">Punktwertverfahren</text>
<text x="562.0" y="-152.2" font-size="17" fill="#1e1e1e">Wettbewerbsanalyse</text>
<text x="908.0" y="-6.4" font-size="16" fill="#1e1e1e">Phasen: Einführung,</text>
<text x="908.0" y="13.6" font-size="16" fill="#1e1e1e">Wachstum, Reife, Sättigung</text>
<text x="908.0" y="72.4" font-size="14" fill="#1e1e1e">Diversifizierung: Innovation,</text>
<text x="908.0" y="89.9" font-size="14" fill="#1e1e1e">Variation, Elimination</text>
<text x="562.0" y="42.8" font-size="17" fill="#1e1e1e">Produktlebenszyklus</text>
<text x="562.0" y="149.2" font-size="17" fill="#1e1e1e">USP</text>
<text x="562.0" y="170.4" font-size="17" fill="#1e1e1e">(Alleinstellungsmerkmal)</text>
<text x="562.0" y="227.2" font-size="17" fill="#1e1e1e">Portfolio-Analyse</text>
<text x="562.0" y="248.4" font-size="17" fill="#1e1e1e">(BCG-Matrix)</text>
<text x="213.0" y="-170.3" font-size="21" fill="#1e1e1e">Analyse-Instrumente</text>
<text x="908.0" y="315.6" font-size="16" fill="#1e1e1e">Spezifisch &amp; Messbar</text>
<text x="908.0" y="393.6" font-size="16" fill="#1e1e1e">Ansprechend &amp; Realistisch</text>
<text x="908.0" y="471.6" font-size="16" fill="#1e1e1e">Terminiert</text>
<text x="562.0" y="393.8" font-size="17" fill="#1e1e1e">SMART-Methode</text>
<text x="908.0" y="549.6" font-size="16" fill="#1e1e1e">Normativ: Vision &amp; Politik</text>
<text x="908.0" y="617.6" font-size="16" fill="#1e1e1e">Strategisch:</text>
<text x="908.0" y="637.6" font-size="16" fill="#1e1e1e">Erfolgssicherung</text>
<text x="908.0" y="695.6" font-size="16" fill="#1e1e1e">Operativ: Umsetzung &amp;</text>
<text x="908.0" y="715.6" font-size="16" fill="#1e1e1e">Führung</text>
<text x="562.0" y="627.8" font-size="17" fill="#1e1e1e">Hierarchieebenen</text>
<text x="213.0" y="511.7" font-size="21" fill="#1e1e1e">Marketing-Ziele</text>
<text x="-1132.0" y="-864.4" font-size="16" fill="#1e1e1e">Kernleistung: z.B.</text>
<text x="-1132.0" y="-844.4" font-size="16" fill="#1e1e1e">Dachstuhlbau</text>
<text x="-1132.0" y="-786.4" font-size="16" fill="#1e1e1e">Zusatzleistung: Beratung,</text>
<text x="-1132.0" y="-766.4" font-size="16" fill="#1e1e1e">Visualisierung</text>
<text x="-798.0" y="-815.2" font-size="17" fill="#1e1e1e">Product (Produktpolitik)</text>
<text x="-1132.0" y="-708.4" font-size="16" fill="#1e1e1e">Kalkulation: Kosten,</text>
<text x="-1132.0" y="-688.4" font-size="16" fill="#1e1e1e">Wettbewerb</text>
<text x="-1132.0" y="-630.4" font-size="16" fill="#1e1e1e">Psychologie: Paketangebote,</text>
<text x="-1132.0" y="-610.4" font-size="16" fill="#1e1e1e">Rabatte</text>
<text x="-798.0" y="-659.2" font-size="17" fill="#1e1e1e">Price (Preispolitik)</text>
<text x="-1132.0" y="-552.4" font-size="16" fill="#1e1e1e">Kanäle: Direktvertrieb,</text>
<text x="-1132.0" y="-532.4" font-size="16" fill="#1e1e1e">Kooperationen</text>
<text x="-1132.0" y="-474.4" font-size="16" fill="#1e1e1e">Nachfassaktionen &amp;</text>
<text x="-1132.0" y="-454.4" font-size="16" fill="#1e1e1e">Dokumentation</text>
<text x="-798.0" y="-503.2" font-size="17" fill="#1e1e1e">Place (Vertriebspolitik)</text>
<text x="-1132.0" y="-396.4" font-size="16" fill="#1e1e1e">Analoge Werbung: Flyer,</text>
<text x="-1132.0" y="-376.4" font-size="16" fill="#1e1e1e">Banner</text>
<text x="-1132.0" y="-308.4" font-size="16" fill="#1e1e1e">PR &amp; Veranstaltungen</text>
<text x="-798.0" y="-347.2" font-size="17" fill="#1e1e1e">Promotion (Kommunikation)</text>
<text x="-798.0" y="-240.8" font-size="17" fill="#1e1e1e">Erweiterung (7P): People,</text>
<text x="-798.0" y="-219.6" font-size="17" fill="#1e1e1e">Process, Physical Evidence</text>
<text x="-467.0" y="-522.3" font-size="21" fill="#1e1e1e">Marketing-Mix (4P/7P)</text>
<text x="-1132.0" y="-162.4" font-size="16" fill="#1e1e1e">Herzstück: Referenzen,</text>
<text x="-1132.0" y="-142.4" font-size="16" fill="#1e1e1e">Team, Kontakt</text>
<text x="-1132.0" y="-84.4" font-size="16" fill="#1e1e1e">Design: Struktur,</text>
<text x="-1132.0" y="-64.4" font-size="16" fill="#1e1e1e">Datenschutz, AIDA</text>
<text x="-798.0" y="-113.2" font-size="17" fill="#1e1e1e">Webseite</text>
<text x="-1132.0" y="-6.4" font-size="16" fill="#1e1e1e">Kanäle: Instagram,</text>
<text x="-1132.0" y="13.6" font-size="16" fill="#1e1e1e">Facebook, TikTok, YouTube</text>
<text x="-1132.0" y="71.6" font-size="16" fill="#1e1e1e">Content: Zeitraffer,</text>
<text x="-1132.0" y="91.6" font-size="16" fill="#1e1e1e">Vorher-Nachher, Stories</text>
<text x="-798.0" y="42.8" font-size="17" fill="#1e1e1e">Social Media</text>
<text x="-1132.0" y="149.6" font-size="16" fill="#1e1e1e">SEO: Onpage-Optimierung,</text>
<text x="-1132.0" y="169.6" font-size="16" fill="#1e1e1e">Keywords</text>
<text x="-1132.0" y="227.6" font-size="16" fill="#1e1e1e">SEA: Google Ads,</text>
<text x="-1132.0" y="247.6" font-size="16" fill="#1e1e1e">Verkaufs-Tags</text>
<text x="-798.0" y="198.8" font-size="17" fill="#1e1e1e">Suchmaschinen (SEM)</text>
<text x="-798.0" y="305.2" font-size="17" fill="#1e1e1e">Bewertungsmanagement:</text>
<text x="-798.0" y="326.4" font-size="17" fill="#1e1e1e">Google, Vertrauensaufbau</text>
<text x="-467.0" y="101.7" font-size="21" fill="#1e1e1e">Digitale Sichtbarkeit</text>
<text x="562.0" y="773.2" font-size="17" fill="#1e1e1e">Design: Logo, Farbwelt,</text>
<text x="562.0" y="794.5" font-size="17" fill="#1e1e1e">Schriftart</text>
<text x="562.0" y="851.2" font-size="17" fill="#1e1e1e">Kleidung: Einheitliches</text>
<text x="562.0" y="872.5" font-size="17" fill="#1e1e1e">Auftreten</text>
<text x="562.0" y="929.2" font-size="17" fill="#1e1e1e">Fahrzeugdesign:</text>
<text x="562.0" y="950.5" font-size="17" fill="#1e1e1e">Sichtbarkeit im Verkehr</text>
<text x="562.0" y="1017.8" font-size="17" fill="#1e1e1e">Communication &amp; Philosophy</text>
<text x="213.0" y="901.7" font-size="21" fill="#1e1e1e">Corporate Identity (CI)</text>
<text x="-1132.0" y="393.6" font-size="16" fill="#1e1e1e">Sicherheit &amp; Vertrauen</text>
<text x="-1132.0" y="461.6" font-size="16" fill="#1e1e1e">Soziale Bedürfnisse &amp;</text>
<text x="-1132.0" y="481.6" font-size="16" fill="#1e1e1e">Kommunikation</text>
<text x="-1132.0" y="549.6" font-size="16" fill="#1e1e1e">Anerkennung &amp; Prestige</text>
<text x="-798.0" y="471.8" font-size="17" fill="#1e1e1e">Bedürfnisse</text>
<text x="-798.0" y="617.2" font-size="17" fill="#1e1e1e">CRM: Gezielte</text>
<text x="-798.0" y="638.5" font-size="17" fill="#1e1e1e">Beziehungsgestaltung</text>
<text x="-798.0" y="695.2" font-size="17" fill="#1e1e1e">Storytelling: Kunde als</text>
<text x="-798.0" y="716.5" font-size="17" fill="#1e1e1e">Held</text>
<text x="-467.0" y="576.6" font-size="21" fill="#1e1e1e">Kundenorientierung &amp;</text>
<text x="-467.0" y="602.9" font-size="21" fill="#1e1e1e">CRM</text>
<text x="-798.0" y="773.6" font-size="16" fill="#1e1e1e">Schritte: Ziel, Zielgruppe,</text>
<text x="-798.0" y="793.6" font-size="16" fill="#1e1e1e">USP, Mix, Budget, Kontrolle</text>
<text x="-798.0" y="841.6" font-size="16" fill="#1e1e1e">Methoden: Direkt-,</text>
<text x="-798.0" y="861.6" font-size="16" fill="#1e1e1e">Empfehlungs-,</text>
<text x="-798.0" y="881.6" font-size="16" fill="#1e1e1e">Guerilla-Marketing</text>
<text x="-467.0" y="810.6" font-size="21" fill="#1e1e1e">Marketingkonzept &amp;</text>
<text x="-467.0" y="836.9" font-size="21" fill="#1e1e1e">Planung</text>
<text x="-157.0" y="-10.8" font-size="27" fill="#1e1e1e">🧠 Marketing im</text>
<text x="-157.0" y="22.9" font-size="27" fill="#1e1e1e">Handwerk</text>
</svg>