<svg xmlns="http://www.w3.org/2000/svg" viewBox="-2124.0 -784.0 4128.0 1718.0" font-family="Segoe UI, system-ui, sans-serif">
<path d="M 0.0 -520.0 L -1310.0 -670.0" fill="none" stroke="#1e1e1e" stroke-width="1.4"/>
<polygon points="-1310.0,-670.0 -1301.4,-672.7 -1302.3,-665.4" fill="#1e1e1e"/>
<path d="M 0.0 -520.0 L -880.0 -670.0" fill="none" stroke="#1e1e1e" stroke-width="1.4"/>
<polygon points="-880.0,-670.0 -871.3,-672.2 -872.5,-665.0" fill="#1e1e1e"/>
<path d="M 0.0 -520.0 L -450.0 -670.0" fill="none" stroke="#1e1e1e" stroke-width="1.4"/>
<polygon points="-450.0,-670.0 -441.0,-670.9 -443.4,-663.9" fill="#1e1e1e"/>
<path d="M 0.0 -520.0 L -20.0 -670.0" fill="none" stroke="#1e1e1e" stroke-width="1.4"/>
<polygon points="-20.0,-670.0 -15.3,-662.3 -22.6,-661.4" fill="#1e1e1e"/>
<path d="M 0.0 -520.0 L 410.0 -670.0" fill="none" stroke="#1e1e1e" stroke-width="1.4"/>
<polygon points="410.0,-670.0 403.5,-663.7 401.0,-670.6" fill="#1e1e1e"/>
<path d="M 0.0 -520.0 L 840.0 -670.0" fill="none" stroke="#1e1e1e" stroke-width="1.4"/>
<polygon points="840.0,-670.0 832.6,-664.9 831.3,-672.2" fill="#1e1e1e"/>
<path d="M 0.0 -520.0 L 1270.0 -670.0" fill="none" stroke="#1e1e1e" stroke-width="1.4"/>
<polygon points="1270.0,-670.0 1262.3,-665.4 1261.4,-672.7" fill="#1e1e1e"/>
<path d="M 0.0 -40.0 L 0.0 -410.0" fill="none" stroke="#1e1e1e" stroke-width="1.4"/>
<polygon points="0.0,-410.0 3.7,-401.8 -3.7,-401.8" fill="#1e1e1e"/>
<path d="M -200.0 30.0 L -1080.0 15.0" fill="none" stroke="#1e1e1e" stroke-width="1.4"/>
<polygon points="-1080.0,15.0 -1071.7,11.5 -1071.8,18.8" fill="#1e1e1e"/>
<path d="M -1400.0 15.0 L -1740.0 -290.0" fill="none" stroke="#1e1e1e" stroke-width="1.4"/>
<polygon points="-1740.0,-290.0 -1731.4,-287.2 -1736.3,-281.8" fill="#1e1e1e"/>
<path d="M -1400.0 15.0 L -1740.0 -110.0" fill="none" stroke="#1e1e1e" stroke-width="1.4"/>
<polygon points="-1740.0,-110.0 -1731.0,-110.6 -1733.6,-103.7" fill="#1e1e1e"/>
<path d="M -1400.0 15.0 L -1740.0 70.0" fill="none" stroke="#1e1e1e" stroke-width="1.4"/>
<polygon points="-1740.0,70.0 -1732.5,65.1 -1731.3,72.3" fill="#1e1e1e"/>
<path d="M -1400.0 15.0 L -1740.0 250.0" fill="none" stroke="#1e1e1e" stroke-width="1.4"/>
<polygon points="-1740.0,250.0 -1735.3,242.3 -1731.2,248.3" fill="#1e1e1e"/>
<path d="M -1400.0 15.0 L -1740.0 430.0" fill="none" stroke="#1e1e1e" stroke-width="1.4"/>
<polygon points="-1740.0,430.0 -1737.6,421.3 -1732.0,426.0" fill="#1e1e1e"/>
<path d="M -1400.0 15.0 L -1740.0 610.0" fill="none" stroke="#1e1e1e" stroke-width="1.4"/>
<polygon points="-1740.0,610.0 -1739.1,601.0 -1732.7,604.7" fill="#1e1e1e"/>
<path d="M -1400.0 15.0 L -1740.0 775.0" fill="none" stroke="#1e1e1e" stroke-width="1.4"/>
<polygon points="-1740.0,775.0 -1740.0,766.0 -1733.3,769.0" fill="#1e1e1e"/>
<path d="M 200.0 30.0 L 1100.0 15.0" fill="none" stroke="#1e1e1e" stroke-width="1.4"/>
<polygon points="1100.0,15.0 1091.8,18.8 1091.7,11.5" fill="#1e1e1e"/>
<path d="M 1440.0 15.0 L 1600.0 -305.0" fill="none" stroke="#1e1e1e" stroke-width="1.4"/>
<polygon points="1600.0,-305.0 1599.6,-296.0 1593.0,-299.3" fill="#1e1e1e"/>
<path d="M 1440.0 15.0 L 1600.0 -155.0" fill="none" stroke="#1e1e1e" stroke-width="1.4"/>
<polygon points="1600.0,-155.0 1597.0,-146.5 1591.7,-151.5" fill="#1e1e1e"/>
<path d="M 1440.0 15.0 L 1600.0 -5.0" fill="none" stroke="#1e1e1e" stroke-width="1.4"/>
<polygon points="1600.0,-5.0 1592.3,-0.3 1591.4,-7.6" fill="#1e1e1e"/>
<path d="M 1440.0 15.0 L 1600.0 145.0" fill="none" stroke="#1e1e1e" stroke-width="1.4"/>
<polygon points="1600.0,145.0 1591.3,142.7 1595.9,137.0" fill="#1e1e1e"/>
<path d="M 1440.0 15.0 L 1600.0 295.0" fill="none" stroke="#1e1e1e" stroke-width="1.4"/>
<polygon points="1600.0,295.0 1592.7,289.7 1599.1,286.0" fill="#1e1e1e"/>
<path d="M 1440.0 15.0 L 1600.0 445.0" fill="none" stroke="#1e1e1e" stroke-width="1.4"/>
<polygon points="1600.0,445.0 1593.7,438.6 1600.6,436.0" fill="#1e1e1e"/>
<path d="M 1440.0 15.0 L 1600.0 595.0" fill="none" stroke="#1e1e1e" stroke-width="1.4"/>
<polygon points="1600.0,595.0 1594.3,588.1 1601.4,586.1" fill="#1e1e1e"/>
<path d="M 1440.0 15.0 L 1600.0 745.0" fill="none" stroke="#1e1e1e" stroke-width="1.4"/>
<polygon points="1600.0,745.0 1594.7,737.8 1601.8,736.2" fill="#1e1e1e"/>
<path d="M 0.0 100.0 L 0.0 560.0" fill="none" stroke="#1e1e1e" stroke-width="1.4"/>
<polygon points="0.0,560.0 -3.7,551.8 3.7,551.8" fill="#1e1e1e"/>
<path d="M 0.0 670.0 L -1280.0 820.0" fill="none" stroke="#1e1e1e" stroke-width="1.4"/>
<polygon points="-1280.0,820.0 -1272.3,815.4 -1271.4,822.7" fill="#1e1e1e"/>
<path d="M 0.0 670.0 L -790.0 820.0" fill="none" stroke="#1e1e1e" stroke-width="1.4"/>
<polygon points="-790.0,820.0 -782.6,814.9 -781.2,822.1" fill="#1e1e1e"/>
<path d="M 0.0 670.0 L -300.0 820.0" fill="none" stroke="#1e1e1e" stroke-width="1.4"/>
<polygon points="-300.0,820.0 -294.3,813.0 -291.0,819.6" fill="#1e1e1e"/>
<path d="M 0.0 670.0 L 190.0 820.0" fill="none" stroke="#1e1e1e" stroke-width="1.4"/>
<polygon points="190.0,820.0 181.3,817.8 185.8,812.0" fill="#1e1e1e"/>
<path d="M 0.0 670.0 L 680.0 820.0" fill="none" stroke="#1e1e1e" stroke-width="1.4"/>
<polygon points="680.0,820.0 671.2,821.8 672.8,814.6" fill="#1e1e1e"/>
<path d="M 0.0 670.0 L 1170.0 820.0" fill="none" stroke="#1e1e1e" stroke-width="1.4"/>
<polygon points="1170.0,820.0 1161.4,822.6 1162.3,815.3" fill="#1e1e1e"/>
<path d="M -1920.0 -220.0 L -1920.0 0.0" fill="none" stroke="#1e1e1e" stroke-width="1.4"/>
<polygon points="-1920.0,0.0 -1923.7,-8.2 -1916.3,-8.2" fill="#1e1e1e"/>
<path d="M -1920.0 -40.0 L -1920.0 0.0" fill="none" stroke="#1e1e1e" stroke-width="1.4"/>
<polygon points="-1920.0,0.0 -1923.7,-8.2 -1916.3,-8.2" fill="#1e1e1e"/>
<path d="M -1920.0 -40.0 L -1920.0 360.0" fill="none" stroke="#1e1e1e" stroke-width="1.4"/>
<polygon points="-1920.0,360.0 -1923.7,351.8 -1916.3,351.8" fill="#1e1e1e"/>
<path d="M -1920.0 140.0 L -1920.0 180.0" fill="none" stroke="#1e1e1e" stroke-width="1.4"/>
<polygon points="-1920.0,180.0 -1923.7,171.8 -1916.3,171.8" fill="#1e1e1e"/>
<path d="M -1920.0 360.0 L -1920.0 140.0" fill="none" stroke="#1e1e1e" stroke-width="1.4"/>
<polygon points="-1920.0,140.0 -1916.3,148.2 -1923.7,148.2" fill="#1e1e1e"/>
<path d="M -1920.0 360.0 L -1920.0 320.0" fill="none" stroke="#1e1e1e" stroke-width="1.4"/>
<polygon points="-1920.0,320.0 -1916.3,328.2 -1923.7,328.2" fill="#1e1e1e"/>
<path d="M -1920.0 320.0 L -1920.0 540.0" fill="none" stroke="#1e1e1e" stroke-width="1.4"/>
<polygon points="-1920.0,540.0 -1923.7,531.8 -1916.3,531.8" fill="#1e1e1e"/>
<path d="M -1740.0 610.0 L 1600.0 -155.0" fill="none" stroke="#1e1e1e" stroke-width="1.4"/>
<polygon points="1600.0,-155.0 1592.8,-149.6 1591.2,-156.7" fill="#1e1e1e"/>
<path d="M 1980.0 -305.0 L 1600.0 -155.0" fill="none" stroke="#1e1e1e" stroke-width="1.4"/>
<polygon points="1600.0,-155.0 1606.3,-161.4 1609.0,-154.6" fill="#1e1e1e"/>
<path d="M 1790.0 -210.0 L -1120.0 -715.0" fill="none" stroke="#1e1e1e" stroke-width="1.4"/>
<polygon points="-1120.0,-715.0 -1111.3,-717.2 -1112.5,-710.0" fill="#1e1e1e"/>
<path d="M -1920.0 0.0 L -1070.0 -715.0" fill="none" stroke="#1e1e1e" stroke-width="1.4"/>
<polygon points="-1070.0,-715.0 -1073.9,-706.9 -1078.7,-712.5" fill="#1e1e1e"/>
<path d="M -1920.0 180.0 L -1500.0 -715.0" fill="none" stroke="#1e1e1e" stroke-width="1.4"/>
<polygon points="-1500.0,-715.0 -1500.2,-706.0 -1506.8,-709.1" fill="#1e1e1e"/>
<path d="M -260.0 -715.0 L 1790.0 -210.0" fill="none" stroke="#1e1e1e" stroke-width="1.4"/>
<polygon points="1790.0,-210.0 1781.1,-208.4 1782.9,-215.5" fill="#1e1e1e"/>
<rect x="-200.0" y="-40.0" width="400.0" height="140.0" rx="8" fill="#d0bfff" stroke="#1e1e1e" stroke-width="1.2"/>
<rect x="-200.0" y="-520.0" width="400.0" height="110.0" rx="8" fill="#d0bfff" stroke="#1e1e1e" stroke-width="1.2"/>
<rect x="-1500.0" y="-760.0" width="380.0" height="90.0" rx="8" fill="#ffc9c9" stroke="#1e1e1e" stroke-width="1.2"/>
<rect x="-1070.0" y="-760.0" width="380.0" height="90.0" rx="8" fill="#ffc9c9" stroke="#1e1e1e" stroke-width="1.2"/>
<rect x="-640.0" y="-760.0" width="380.0" height="90.0" rx="8" fill="#ffd8a8" stroke="#1e1e1e" stroke-width="1.2"/>
<rect x="-210.0" y="-760.0" width="380.0" height="90.0" rx="8" fill="#ffd8a8" stroke="#1e1e1e" stroke-width="1.2"/>
<rect x="220.0" y="-760.0" width="380.0" height="90.0" rx="8" fill="#b2f2bb" stroke="#1e1e1e" stroke-width="1.2"/>
<rect x="650.0" y="-760.0" width="380.0" height="90.0" rx="8" fill="#ffd8a8" stroke="#1e1e1e" stroke-width="1.2"/>
<rect x="1080.0" y="-760.0" width="380.0" height="90.0" rx="8" fill="#ffc9c9" stroke="#1e1e1e" stroke-width="1.2"/>
<rect x="-1400.0" y="-40.0" width="320.0" height="110.0" rx="8" fill="#d0bfff" stroke="#1e1e1e" stroke-width="1.2"/>
<rect x="-2100.0" y="-360.0" width="360.0" height="140.0" rx="8" fill="#b2f2bb" stroke="#1e1e1e" stroke-width="1.2"/>
<rect x="-2100.0" y="-180.0" width="360.0" height="140.0" rx="8" fill="#ffd8a8" stroke="#1e1e1e" stroke-width="1.2"/>
<rect x="-2100.0" y="0.0" width="360.0" height="140.0" rx="8" fill="#ffc9c9" stroke="#1e1e1e" stroke-width="1.2"/>
<rect x="-2100.0" y="180.0" width="360.0" height="140.0" rx="8" fill="#ffc9c9" stroke="#1e1e1e" stroke-width="1.2"/>
<rect x="-2100.0" y="360.0" width="360.0" height="140.0" rx="8" fill="#ffc9c9" stroke="#1e1e1e" stroke-width="1.2"/>
<rect x="-2100.0" y="540.0" width="360.0" height="140.0" rx="8" fill="#ffd8a8" stroke="#1e1e1e" stroke-width="1.2"/>
<rect x="-2100.0" y="730.0" width="360.0" height="90.0" rx="8" fill="#a5d8ff" stroke="#1e1e1e" stroke-width="1.2"/>
<rect x="1100.0" y="-40.0" width="340.0" height="110.0" rx="8" fill="#d0bfff" stroke="#1e1e1e" stroke-width="1.2"/>
<rect x="1600.0" y="-360.0" width="380.0" height="110.0" rx="8" fill="#ffc9c9" stroke="#1e1e1e" stroke-width="1.2"/>
<rect x="1600.0" y="-210.0" width="380.0" height="110.0" rx="8" fill="#ffc9c9" stroke="#1e1e1e" stroke-width="1.2"/>
<rect x="1600.0" y="-60.0" width="380.0" height="110.0" rx="8" fill="#ffc9c9" stroke="#1e1e1e" stroke-width="1.2"/>
<rect x="1600.0" y="90.0" width="380.0" height="110.0" rx="8" fill="#ffd8a8" stroke="#1e1e1e" stroke-width="1.2"/>
<rect x="1600.0" y="240.0" width="380.0" height="110.0" rx="8" fill="#ffd8a8" stroke="#1e1e1e" stroke-width="1.2"/>
<rect x="1600.0" y="390.0" width="380.0" height="110.0" rx="8" fill="#b2f2bb" stroke="#1e1e1e" stroke-width="1.2"/>
<rect x="1600.0" y="540.0" width="380.0" height="110.0" rx="8" fill="#ffd8a8" stroke="#1e1e1e" stroke-width="1.2"/>
<rect x="1600.0" y="690.0" width="380.0" height="110.0" rx="8" fill="#ffd8a8" stroke="#1e1e1e" stroke-width="1.2"/>
<rect x="-260.0" y="560.0" width="520.0" height="110.0" rx="8" fill="#d0bfff" stroke="#1e1e1e" stroke-width="1.2"/>
<rect x="-1500.0" y="820.0" width="440.0" height="90.0" rx="8" fill="#ffd8a8" stroke="#1e1e1e" stroke-width="1.2"/>
<rect x="-1010.0" y="820.0" width="440.0" height="90.0" rx="8" fill="#ffd8a8" stroke="#1e1e1e" stroke-width="1.2"/>
<rect x="-520.0" y="820.0" width="440.0" height="90.0" rx="8" fill="#b2f2bb" stroke="#1e1e1e" stroke-width="1.2"/>
<rect x="-30.0" y="820.0" width="440.0" height="90.0" rx="8" fill="#b2f2bb" stroke="#1e1e1e" stroke-width="1.2"/>
<rect x="460.0" y="820.0" width="440.0" height="90.0" rx="8" fill="#ffd8a8" stroke="#1e1e1e" stroke-width="1.2"/>
<rect x="950.0" y="820.0" width="440.0" height="90.0" rx="8" fill="#ffd8a8" stroke="#1e1e1e" stroke-width="1.2"/>
<text x="-192.0" y="1.3" font-size="28" fill="#1e1e1e">🎓 Meisterprüfung</text>
<text x="-192.0" y="36.3" font-size="28" fill="#1e1e1e">Zimmerer 2026</text>
<text x="-192.0" y="71.3" font-size="28" fill="#1e1e1e">(HWK Bln/Bbg/FFO)</text>
<text x="-192.0" y="-492.7" font-size="27" fill="#1e1e1e">🔨 TEIL I – Fachpraxis</text>
<text x="-192.0" y="-458.9" font-size="27" fill="#1e1e1e">(Meisterprojekt +</text>
<text x="-192.0" y="-425.2" font-size="27" fill="#1e1e1e">Fachgespräch)</text>
<text x="-1492.0" y="-709.8" font-size="23" fill="#1e1e1e">🔴 SEMA-Meisterprojekt 🔄</text>
<text x="-1062.0" y="-724.2" font-size="23" fill="#1e1e1e">🔴 Dachausmittlung &amp; rechn.</text>
<text x="-1062.0" y="-695.5" font-size="23" fill="#1e1e1e">Abbund 🔄/❌</text>
<text x="-632.0" y="-737.5" font-size="22" fill="#1e1e1e">🟡</text>
<text x="-632.0" y="-710.0" font-size="22" fill="#1e1e1e">Arbeits-/Material-/Zeitplanung</text>
<text x="-632.0" y="-682.5" font-size="22" fill="#1e1e1e">🔄</text>
<text x="-202.0" y="-709.8" font-size="23" fill="#1e1e1e">🟡 Baustellenorganisation 🔄</text>
<text x="228.0" y="-709.8" font-size="23" fill="#1e1e1e">🟢 Kundenkommunikation</text>
<text x="658.0" y="-709.8" font-size="23" fill="#1e1e1e">🟡 Dokumentation 🔄</text>
<text x="1088.0" y="-709.8" font-size="23" fill="#1e1e1e">🔴 Fachgespräch 🔄</text>
<text x="-1392.0" y="3.8" font-size="28" fill="#1e1e1e">📐 TEIL II –</text>
<text x="-1392.0" y="38.8" font-size="28" fill="#1e1e1e">Fachtheorie</text>
<text x="-2092.0" y="-301.2" font-size="28" fill="#1e1e1e">📄 Werkstoffkunde (Teil</text>
<text x="-2092.0" y="-266.2" font-size="28" fill="#1e1e1e">II)</text>
<text x="-2092.0" y="-121.2" font-size="28" fill="#1e1e1e">📄 Normen &amp; Regelwerke</text>
<text x="-2092.0" y="-86.2" font-size="28" fill="#1e1e1e">(Teil II)</text>
<text x="-2092.0" y="76.3" font-size="28" fill="#1e1e1e">📄 Statik (Teil II)</text>
<text x="-2092.0" y="238.8" font-size="28" fill="#1e1e1e">📄 Holzbaukonstruktion</text>
<text x="-2092.0" y="273.8" font-size="28" fill="#1e1e1e">(Teil II)</text>
<text x="-2092.0" y="436.3" font-size="28" fill="#1e1e1e">📄 Bauphysik (Teil II)</text>
<text x="-2092.0" y="598.8" font-size="28" fill="#1e1e1e">📄 Arbeitsvorbereitung</text>
<text x="-2092.0" y="633.8" font-size="28" fill="#1e1e1e">(Teil II)</text>
<text x="-2092.0" y="752.5" font-size="22" fill="#1e1e1e">🗺️ Detail: 31 Themen →</text>
<text x="-2092.0" y="780.0" font-size="22" fill="#1e1e1e">[[Teil II – Wissensgraph</text>
<text x="-2092.0" y="807.5" font-size="22" fill="#1e1e1e">(Karte).canvas]]</text>
<text x="1108.0" y="3.8" font-size="28" fill="#1e1e1e">💰 TEIL III –</text>
<text x="1108.0" y="38.8" font-size="28" fill="#1e1e1e">Betriebswirtschaft</text>
<text x="1608.0" y="-316.2" font-size="28" fill="#1e1e1e">🔴 Kostenrechnung / BWL</text>
<text x="1608.0" y="-281.2" font-size="28" fill="#1e1e1e">(HF4a) ❌</text>
<text x="1608.0" y="-148.7" font-size="28" fill="#1e1e1e">🔴 Kalkulation (HF3b/3i) ❌</text>
<text x="1608.0" y="1.3" font-size="28" fill="#1e1e1e">🔴 Angebotserstellung ❌</text>
<text x="1608.0" y="151.3" font-size="28" fill="#1e1e1e">🟡 Vor-/Nachkalkulation ❌</text>
<text x="1608.0" y="283.8" font-size="28" fill="#1e1e1e">🟡 Controlling &amp;</text>
<text x="1608.0" y="318.8" font-size="28" fill="#1e1e1e">Kennzahlen ❌</text>
<text x="1608.0" y="433.8" font-size="28" fill="#1e1e1e">🟢 Finanzierung &amp;</text>
<text x="1608.0" y="468.8" font-size="28" fill="#1e1e1e">Investition</text>
<text x="1608.0" y="601.3" font-size="28" fill="#1e1e1e">🟡 Marketing 🔄</text>
<text x="1608.0" y="751.3" font-size="28" fill="#1e1e1e">🟡 Unternehmensführung</text>
<text x="-252.0" y="603.8" font-size="28" fill="#1e1e1e">👷 TEIL IV – Ausbildung &amp;</text>
<text x="-252.0" y="638.8" font-size="28" fill="#1e1e1e">Mitarbeiterführung (AEVO)</text>
<text x="-1492.0" y="870.2" font-size="23" fill="#1e1e1e">🟡 Ausbildung planen</text>
<text x="-1002.0" y="870.2" font-size="23" fill="#1e1e1e">🟡 Mitarbeitergespräche</text>
<text x="-512.0" y="870.2" font-size="23" fill="#1e1e1e">🟢 Konfliktmanagement</text>
<text x="-22.0" y="870.2" font-size="23" fill="#1e1e1e">🟢 Motivation</text>
<text x="468.0" y="870.2" font-size="23" fill="#1e1e1e">🟡 Personalwirtschaft (HF4e) ❌</text>
<text x="958.0" y="870.2" font-size="23" fill="#1e1e1e">🟡 Arbeitsschutzunterweisung 🔄</text>
<text x="-1920.0" y="-103.8" font-size="12" text-anchor="middle" fill="#1e1e1e" stroke="#ffffff" stroke-width="4" paint-order="stroke" font-weight="600">Voraussetzung: Festigkeitsklassen</text>
<text x="-1920.0" y="-13.8" font-size="12" text-anchor="middle" fill="#1e1e1e" stroke="#ffffff" stroke-width="4" paint-order="stroke" font-weight="600">Voraussetzung: EC5-Bemessung</text>
<text x="-1920.0" y="166.2" font-size="12" text-anchor="middle" fill="#1e1e1e" stroke="#ffffff" stroke-width="4" paint-order="stroke" font-weight="600">Voraussetzung: GEG/DIN</text>
<text x="-1920.0" y="166.2" font-size="12" text-anchor="middle" fill="#1e1e1e" stroke="#ffffff" stroke-width="4" paint-order="stroke" font-weight="600">bemisst Konstruktion</text>
<text x="-1920.0" y="256.2" font-size="12" text-anchor="middle" fill="#1e1e1e" stroke="#ffffff" stroke-width="4" paint-order="stroke" font-weight="600">tragen + dämmen</text>
<text x="-1920.0" y="346.2" font-size="12" text-anchor="middle" fill="#1e1e1e" stroke="#ffffff" stroke-width="4" paint-order="stroke" font-weight="600">Aufbau erfüllt Schutzziele</text>
<text x="-1920.0" y="436.2" font-size="12" text-anchor="middle" fill="#1e1e1e" stroke="#ffffff" stroke-width="4" paint-order="stroke" font-weight="600">Konstruktion → Fertigung</text>
<text x="-70.0" y="233.7" font-size="12" text-anchor="middle" fill="#1e1e1e" stroke="#ffffff" stroke-width="4" paint-order="stroke" font-weight="600">Mengen ↔ Preis</text>
<text x="1790.0" y="-223.8" font-size="12" text-anchor="middle" fill="#1e1e1e" stroke="#ffffff" stroke-width="4" paint-order="stroke" font-weight="600">Voraussetzung: Kostensätze</text>
<text x="335.0" y="-456.3" font-size="12" text-anchor="middle" fill="#1e1e1e" stroke="#ffffff" stroke-width="4" paint-order="stroke" font-weight="600">Projekt wirtschaftlich bewerten</text>
<text x="-1495.0" y="-351.3" font-size="12" text-anchor="middle" fill="#1e1e1e" stroke="#ffffff" stroke-width="4" paint-order="stroke" font-weight="600">Grundlage Abbund</text>
<text x="-1710.0" y="-261.3" font-size="12" text-anchor="middle" fill="#1e1e1e" stroke="#ffffff" stroke-width="4" paint-order="stroke" font-weight="600">Grundlage Konstruktion</text>
<text x="765.0" y="-456.3" font-size="12" text-anchor="middle" fill="#1e1e1e" stroke="#ffffff" stroke-width="4" paint-order="stroke" font-weight="600">Zeiten ↔ Kalkulation</text>
</svg>