<svg xmlns="http://www.w3.org/2000/svg" viewBox="-830.0 -603.0 1994.0 1206.0" font-family="Segoe UI, system-ui, sans-serif">
<path d="M 475.0 -390.0 L 554.0 -507.0" fill="none" stroke="#1e1e1e" stroke-width="1.4"/>
<polygon points="554.0,-507.0 552.4,-498.1 546.4,-502.2" fill="#1e1e1e"/>
<path d="M 475.0 -390.0 L 554.0 -429.0" fill="none" stroke="#1e1e1e" stroke-width="1.4"/>
<polygon points="554.0,-429.0 548.3,-422.1 545.0,-428.7" fill="#1e1e1e"/>
<path d="M 475.0 -390.0 L 554.0 -351.0" fill="none" stroke="#1e1e1e" stroke-width="1.4"/>
<polygon points="554.0,-351.0 545.0,-351.3 548.3,-357.9" fill="#1e1e1e"/>
<path d="M 475.0 -390.0 L 554.0 -273.0" fill="none" stroke="#1e1e1e" stroke-width="1.4"/>
<polygon points="554.0,-273.0 546.4,-277.8 552.4,-281.9" fill="#1e1e1e"/>
<path d="M -475.0 -390.0 L -554.0 -546.0" fill="none" stroke="#1e1e1e" stroke-width="1.4"/>
<polygon points="-554.0,-546.0 -547.0,-540.3 -553.6,-537.0" fill="#1e1e1e"/>
<path d="M -475.0 -390.0 L -554.0 -468.0" fill="none" stroke="#1e1e1e" stroke-width="1.4"/>
<polygon points="-554.0,-468.0 -545.6,-464.8 -550.7,-459.6" fill="#1e1e1e"/>
<path d="M -475.0 -390.0 L -554.0 -390.0" fill="none" stroke="#1e1e1e" stroke-width="1.4"/>
<polygon points="-554.0,-390.0 -545.8,-393.7 -545.8,-386.3" fill="#1e1e1e"/>
<path d="M -475.0 -390.0 L -554.0 -312.0" fill="none" stroke="#1e1e1e" stroke-width="1.4"/>
<polygon points="-554.0,-312.0 -550.7,-320.4 -545.6,-315.2" fill="#1e1e1e"/>
<path d="M -475.0 -390.0 L -554.0 -234.0" fill="none" stroke="#1e1e1e" stroke-width="1.4"/>
<polygon points="-554.0,-234.0 -553.6,-243.0 -547.0,-239.7" fill="#1e1e1e"/>
<path d="M -475.0 39.0 L -554.0 -156.0" fill="none" stroke="#1e1e1e" stroke-width="1.4"/>
<polygon points="-554.0,-156.0 -547.5,-149.8 -554.3,-147.0" fill="#1e1e1e"/>
<path d="M -475.0 39.0 L -554.0 -78.0" fill="none" stroke="#1e1e1e" stroke-width="1.4"/>
<polygon points="-554.0,-78.0 -546.4,-73.2 -552.4,-69.1" fill="#1e1e1e"/>
<path d="M -475.0 39.0 L -554.0 0.0" fill="none" stroke="#1e1e1e" stroke-width="1.4"/>
<polygon points="-554.0,0.0 -545.0,0.3 -548.3,6.9" fill="#1e1e1e"/>
<path d="M -475.0 39.0 L -554.0 78.0" fill="none" stroke="#1e1e1e" stroke-width="1.4"/>
<polygon points="-554.0,78.0 -548.3,71.1 -545.0,77.7" fill="#1e1e1e"/>
<path d="M -475.0 39.0 L -554.0 156.0" fill="none" stroke="#1e1e1e" stroke-width="1.4"/>
<polygon points="-554.0,156.0 -552.4,147.1 -546.4,151.2" fill="#1e1e1e"/>
<path d="M -475.0 39.0 L -554.0 234.0" fill="none" stroke="#1e1e1e" stroke-width="1.4"/>
<polygon points="-554.0,234.0 -554.3,225.0 -547.5,227.8" fill="#1e1e1e"/>
<path d="M -475.0 429.0 L -554.0 312.0" fill="none" stroke="#1e1e1e" stroke-width="1.4"/>
<polygon points="-554.0,312.0 -546.4,316.8 -552.4,320.9" fill="#1e1e1e"/>
<path d="M -475.0 429.0 L -554.0 390.0" fill="none" stroke="#1e1e1e" stroke-width="1.4"/>
<polygon points="-554.0,390.0 -545.0,390.3 -548.3,396.9" fill="#1e1e1e"/>
<path d="M -475.0 429.0 L -554.0 468.0" fill="none" stroke="#1e1e1e" stroke-width="1.4"/>
<polygon points="-554.0,468.0 -548.3,461.1 -545.0,467.7" fill="#1e1e1e"/>
<path d="M -475.0 429.0 L -554.0 546.0" fill="none" stroke="#1e1e1e" stroke-width="1.4"/>
<polygon points="-554.0,546.0 -552.4,537.1 -546.4,541.2" fill="#1e1e1e"/>
<path d="M 806.0 156.0 L 900.0 39.0" fill="none" stroke="#1e1e1e" stroke-width="1.4"/>
<polygon points="900.0,39.0 897.7,47.7 892.0,43.1" fill="#1e1e1e"/>
<path d="M 806.0 156.0 L 900.0 117.0" fill="none" stroke="#1e1e1e" stroke-width="1.4"/>
<polygon points="900.0,117.0 893.8,123.5 891.0,116.8" fill="#1e1e1e"/>
<path d="M 806.0 156.0 L 900.0 195.0" fill="none" stroke="#1e1e1e" stroke-width="1.4"/>
<polygon points="900.0,195.0 891.0,195.2 893.8,188.5" fill="#1e1e1e"/>
<path d="M 806.0 156.0 L 900.0 273.0" fill="none" stroke="#1e1e1e" stroke-width="1.4"/>
<polygon points="900.0,273.0 892.0,268.9 897.7,264.3" fill="#1e1e1e"/>
<path d="M 475.0 -19.0 L 554.0 -195.0" fill="none" stroke="#1e1e1e" stroke-width="1.4"/>
<polygon points="554.0,-195.0 554.0,-186.0 547.3,-189.0" fill="#1e1e1e"/>
<path d="M 475.0 -19.0 L 554.0 -117.0" fill="none" stroke="#1e1e1e" stroke-width="1.4"/>
<polygon points="554.0,-117.0 551.7,-108.3 546.0,-112.9" fill="#1e1e1e"/>
<path d="M 475.0 -19.0 L 554.0 -39.0" fill="none" stroke="#1e1e1e" stroke-width="1.4"/>
<polygon points="554.0,-39.0 546.9,-33.4 545.1,-40.5" fill="#1e1e1e"/>
<path d="M 475.0 -19.0 L 554.0 156.0" fill="none" stroke="#1e1e1e" stroke-width="1.4"/>
<polygon points="554.0,156.0 547.3,150.0 554.0,147.0" fill="#1e1e1e"/>
<path d="M 475.0 429.0 L 554.0 351.0" fill="none" stroke="#1e1e1e" stroke-width="1.4"/>
<polygon points="554.0,351.0 550.7,359.4 545.6,354.2" fill="#1e1e1e"/>
<path d="M 475.0 429.0 L 554.0 429.0" fill="none" stroke="#1e1e1e" stroke-width="1.4"/>
<polygon points="554.0,429.0 545.8,432.7 545.8,425.3" fill="#1e1e1e"/>
<path d="M 475.0 429.0 L 554.0 507.0" fill="none" stroke="#1e1e1e" stroke-width="1.4"/>
<polygon points="554.0,507.0 545.6,503.8 550.7,498.6" fill="#1e1e1e"/>
<path d="M 165.0 0.0 L 205.0 -390.0" fill="none" stroke="#1e1e1e" stroke-width="1.4"/>
<polygon points="205.0,-390.0 207.8,-381.5 200.5,-382.2" fill="#1e1e1e"/>
<path d="M -165.0 0.0 L -205.0 -390.0" fill="none" stroke="#1e1e1e" stroke-width="1.4"/>
<polygon points="-205.0,-390.0 -200.5,-382.2 -207.8,-381.5" fill="#1e1e1e"/>
<path d="M -165.0 0.0 L -205.0 39.0" fill="none" stroke="#1e1e1e" stroke-width="1.4"/>
<polygon points="-205.0,39.0 -201.7,30.6 -196.6,35.9" fill="#1e1e1e"/>
<path d="M -165.0 0.0 L -205.0 429.0" fill="none" stroke="#1e1e1e" stroke-width="1.4"/>
<polygon points="-205.0,429.0 -207.9,420.5 -200.6,421.2" fill="#1e1e1e"/>
<path d="M 165.0 0.0 L 205.0 -19.0" fill="none" stroke="#1e1e1e" stroke-width="1.4"/>
<polygon points="205.0,-19.0 199.2,-12.2 196.0,-18.8" fill="#1e1e1e"/>
<path d="M 165.0 0.0 L 205.0 429.0" fill="none" stroke="#1e1e1e" stroke-width="1.4"/>
<polygon points="205.0,429.0 200.6,421.2 207.9,420.5" fill="#1e1e1e"/>
<rect x="554.0" y="-540.0" width="252.0" height="66.0" rx="8" fill="#b8e0ff" stroke="#1e1e1e" stroke-width="1.2"/>
<rect x="554.0" y="-462.0" width="252.0" height="66.0" rx="8" fill="#b8e0ff" stroke="#1e1e1e" stroke-width="1.2"/>
<rect x="554.0" y="-384.0" width="252.0" height="66.0" rx="8" fill="#b8e0ff" stroke="#1e1e1e" stroke-width="1.2"/>
<rect x="554.0" y="-306.0" width="252.0" height="66.0" rx="8" fill="#b8e0ff" stroke="#1e1e1e" stroke-width="1.2"/>
<rect x="205.0" y="-431.0" width="270.0" height="82.0" rx="8" fill="#a5d8ff" stroke="#1e1e1e" stroke-width="1.2"/>
<rect x="-806.0" y="-579.0" width="252.0" height="66.0" rx="8" fill="#c2f4c9" stroke="#1e1e1e" stroke-width="1.2"/>
<rect x="-806.0" y="-501.0" width="252.0" height="66.0" rx="8" fill="#c2f4c9" stroke="#1e1e1e" stroke-width="1.2"/>
<rect x="-806.0" y="-423.0" width="252.0" height="66.0" rx="8" fill="#c2f4c9" stroke="#1e1e1e" stroke-width="1.2"/>
<rect x="-806.0" y="-345.0" width="252.0" height="66.0" rx="8" fill="#c2f4c9" stroke="#1e1e1e" stroke-width="1.2"/>
<rect x="-806.0" y="-267.0" width="252.0" height="66.0" rx="8" fill="#c2f4c9" stroke="#1e1e1e" stroke-width="1.2"/>
<rect x="-475.0" y="-431.0" width="270.0" height="82.0" rx="8" fill="#b2f2bb" stroke="#1e1e1e" stroke-width="1.2"/>
<rect x="-806.0" y="-189.0" width="252.0" height="66.0" rx="8" fill="#ffe0bb" stroke="#1e1e1e" stroke-width="1.2"/>
<rect x="-806.0" y="-111.0" width="252.0" height="66.0" rx="8" fill="#ffe0bb" stroke="#1e1e1e" stroke-width="1.2"/>
<rect x="-806.0" y="-33.0" width="252.0" height="66.0" rx="8" fill="#ffe0bb" stroke="#1e1e1e" stroke-width="1.2"/>
<rect x="-806.0" y="45.0" width="252.0" height="66.0" rx="8" fill="#ffe0bb" stroke="#1e1e1e" stroke-width="1.2"/>
<rect x="-806.0" y="123.0" width="252.0" height="66.0" rx="8" fill="#ffe0bb" stroke="#1e1e1e" stroke-width="1.2"/>
<rect x="-806.0" y="201.0" width="252.0" height="66.0" rx="8" fill="#ffe0bb" stroke="#1e1e1e" stroke-width="1.2"/>
<rect x="-475.0" y="-2.0" width="270.0" height="82.0" rx="8" fill="#ffd8a8" stroke="#1e1e1e" stroke-width="1.2"/>
<rect x="-806.0" y="279.0" width="252.0" height="66.0" rx="8" fill="#dacdff" stroke="#1e1e1e" stroke-width="1.2"/>
<rect x="-806.0" y="357.0" width="252.0" height="66.0" rx="8" fill="#dacdff" stroke="#1e1e1e" stroke-width="1.2"/>
<rect x="-806.0" y="435.0" width="252.0" height="66.0" rx="8" fill="#dacdff" stroke="#1e1e1e" stroke-width="1.2"/>
<rect x="-806.0" y="513.0" width="252.0" height="66.0" rx="8" fill="#dacdff" stroke="#1e1e1e" stroke-width="1.2"/>
<rect x="-475.0" y="388.0" width="270.0" height="82.0" rx="8" fill="#d0bfff" stroke="#1e1e1e" stroke-width="1.2"/>
<rect x="554.0" y="-228.0" width="252.0" height="66.0" rx="8" fill="#ffd4d4" stroke="#1e1e1e" stroke-width="1.2"/>
<rect x="554.0" y="-150.0" width="252.0" height="66.0" rx="8" fill="#ffd4d4" stroke="#1e1e1e" stroke-width="1.2"/>
<rect x="554.0" y="-72.0" width="252.0" height="66.0" rx="8" fill="#ffd4d4" stroke="#1e1e1e" stroke-width="1.2"/>
<rect x="900.0" y="8.0" width="240.0" height="62.0" rx="8" fill="#ffdfdf" stroke="#1e1e1e" stroke-width="1.2"/>
<rect x="900.0" y="86.0" width="240.0" height="62.0" rx="8" fill="#ffdfdf" stroke="#1e1e1e" stroke-width="1.2"/>
<rect x="900.0" y="164.0" width="240.0" height="62.0" rx="8" fill="#ffdfdf" stroke="#1e1e1e" stroke-width="1.2"/>
<rect x="900.0" y="242.0" width="240.0" height="62.0" rx="8" fill="#ffdfdf" stroke="#1e1e1e" stroke-width="1.2"/>
<rect x="554.0" y="123.0" width="252.0" height="66.0" rx="8" fill="#ffd4d4" stroke="#1e1e1e" stroke-width="1.2"/>
<rect x="205.0" y="-60.0" width="270.0" height="82.0" rx="8" fill="#ffc9c9" stroke="#1e1e1e" stroke-width="1.2"/>
<rect x="554.0" y="318.0" width="252.0" height="66.0" rx="8" fill="#fff0af" stroke="#1e1e1e" stroke-width="1.2"/>
<rect x="554.0" y="396.0" width="252.0" height="66.0" rx="8" fill="#fff0af" stroke="#1e1e1e" stroke-width="1.2"/>
<rect x="554.0" y="474.0" width="252.0" height="66.0" rx="8" fill="#fff0af" stroke="#1e1e1e" stroke-width="1.2"/>
<rect x="205.0" y="388.0" width="270.0" height="82.0" rx="8" fill="#ffec99" stroke="#1e1e1e" stroke-width="1.2"/>
<rect x="-165.0" y="-52.0" width="330.0" height="104.0" rx="8" fill="#ffe066" stroke="#1e1e1e" stroke-width="1.2"/>
<text x="562.0" y="-503.2" font-size="17" fill="#1e1e1e">Vertraulichkeit</text>
<text x="562.0" y="-425.2" font-size="17" fill="#1e1e1e">Pünktlichkeit &amp; Respekt</text>
<text x="562.0" y="-347.2" font-size="17" fill="#1e1e1e">Feedback &amp; Spaß</text>
<text x="562.0" y="-269.2" font-size="17" fill="#1e1e1e">Vorstellungsrunde &amp; Ziele</text>
<text x="213.0" y="-398.4" font-size="21" fill="#1e1e1e">Einführung &amp;</text>
<text x="213.0" y="-372.1" font-size="21" fill="#1e1e1e">Vereinbarungen</text>
<text x="-798.0" y="-542.2" font-size="17" fill="#1e1e1e">Über 1 Mio. Betriebe</text>
<text x="-798.0" y="-464.2" font-size="17" fill="#1e1e1e">5,56 Mio. Beschäftigte</text>
<text x="-798.0" y="-386.2" font-size="17" fill="#1e1e1e">342.000 Auszubildende</text>
<text x="-798.0" y="-308.2" font-size="17" fill="#1e1e1e">Umsatz ca. 757 Mrd. €</text>
<text x="-798.0" y="-240.8" font-size="17" fill="#1e1e1e">20.000 neue Meister</text>
<text x="-798.0" y="-219.6" font-size="17" fill="#1e1e1e">jährlich</text>
<text x="-467.0" y="-398.4" font-size="21" fill="#1e1e1e">Das Deutsche Handwerk</text>
<text x="-467.0" y="-372.1" font-size="21" fill="#1e1e1e">(ZDF)</text>
<text x="-798.0" y="-152.2" font-size="17" fill="#1e1e1e">Personalbedarfsplanung</text>
<text x="-798.0" y="-84.8" font-size="17" fill="#1e1e1e">Beschaffung &amp;</text>
<text x="-798.0" y="-63.5" font-size="17" fill="#1e1e1e">Stellenbeschreibung</text>
<text x="-798.0" y="-6.8" font-size="17" fill="#1e1e1e">Entlohnung &amp;</text>
<text x="-798.0" y="14.4" font-size="17" fill="#1e1e1e">Lohnabrechnung</text>
<text x="-798.0" y="81.8" font-size="17" fill="#1e1e1e">Arbeits- &amp; Sozialrecht</text>
<text x="-798.0" y="149.2" font-size="17" fill="#1e1e1e">Personalentwicklung &amp;</text>
<text x="-798.0" y="170.4" font-size="17" fill="#1e1e1e">Motivation</text>
<text x="-798.0" y="237.8" font-size="17" fill="#1e1e1e">Zustandsmanagement</text>
<text x="-467.0" y="30.6" font-size="21" fill="#1e1e1e">Personalmanagement</text>
<text x="-467.0" y="56.8" font-size="21" fill="#1e1e1e">Themen</text>
<text x="-798.0" y="305.2" font-size="17" fill="#1e1e1e">BIP Berechnung</text>
<text x="-798.0" y="326.4" font-size="17" fill="#1e1e1e">(Verwendungsrechnung)</text>
<text x="-798.0" y="393.8" font-size="17" fill="#1e1e1e">Staatsquote (ca. 48-50%)</text>
<text x="-798.0" y="461.2" font-size="17" fill="#1e1e1e">Bundeshaushalt: Arbeit &amp;</text>
<text x="-798.0" y="482.4" font-size="17" fill="#1e1e1e">Soziales als Kostentreiber</text>
<text x="-798.0" y="539.2" font-size="17" fill="#1e1e1e">Insolvenzentwicklung</text>
<text x="-798.0" y="560.5" font-size="17" fill="#1e1e1e">2024/2025</text>
<text x="-467.0" y="420.6" font-size="21" fill="#1e1e1e">Wirtschaftliche</text>
<text x="-467.0" y="446.9" font-size="21" fill="#1e1e1e">Rahmenbedingungen</text>
<text x="562.0" y="-191.2" font-size="17" fill="#1e1e1e">Geschäftsidee &amp; Franchise</text>
<text x="562.0" y="-113.2" font-size="17" fill="#1e1e1e">Rechtsform &amp; Finanzierung</text>
<text x="562.0" y="-45.8" font-size="17" fill="#1e1e1e">Juristische</text>
<text x="562.0" y="-24.5" font-size="17" fill="#1e1e1e">Voraussetzungen</text>
<text x="908.0" y="42.6" font-size="16" fill="#1e1e1e">Eigenmotivation</text>
<text x="908.0" y="120.6" font-size="16" fill="#1e1e1e">Glaube an Machbarkeit</text>
<text x="908.0" y="198.6" font-size="16" fill="#1e1e1e">Resilienz</text>
<text x="908.0" y="276.6" font-size="16" fill="#1e1e1e">Problemlösungsorientierung</text>
<text x="562.0" y="149.2" font-size="17" fill="#1e1e1e">Eigenschaften</text>
<text x="562.0" y="170.4" font-size="17" fill="#1e1e1e">erfolgreicher Unternehmer</text>
<text x="213.0" y="-14.3" font-size="21" fill="#1e1e1e">Unternehmensgründung</text>
<text x="562.0" y="354.8" font-size="17" fill="#1e1e1e">Anlage A: Meisterpflicht</text>
<text x="562.0" y="432.8" font-size="17" fill="#1e1e1e">Anlage B1: Zulassungsfrei</text>
<text x="562.0" y="500.2" font-size="17" fill="#1e1e1e">Anlage B2:</text>
<text x="562.0" y="521.5" font-size="17" fill="#1e1e1e">Handwerksähnliche Gewerke</text>
<text x="213.0" y="420.6" font-size="21" fill="#1e1e1e">Handwerksordnung (HWO)</text>
<text x="213.0" y="446.9" font-size="21" fill="#1e1e1e">Anlagen</text>
<text x="-157.0" y="-26.7" font-size="26" fill="#1e1e1e">🧠 Meisterschule</text>
<text x="-157.0" y="5.8" font-size="26" fill="#1e1e1e">Zimmerer-Handwerk:</text>
<text x="-157.0" y="38.3" font-size="26" fill="#1e1e1e">Personalmanagement</text>
</svg>